<svg id="Layer_8" data-name="Layer 8" xmlns="http://www.w3.org/2000/svg" viewBox="0 0 62.6 27"><defs><style>.cls-1{fill:#fff;}</style></defs><path class="cls-1" d="M33.6,30.8c-.2-.2,0-.7.4-.8a13.6,13.6,0,0,0-.2-2c0-.5,0-.8.6-1h-.6a.3.3,0,0,1-.3-.3l.3-2.3c0-.1.1-.2.2-.3h.3c.6,0,.6,0,.5-.6a4.8,4.8,0,0,1,.7-3,1.9,1.9,0,0,1,1.4-.9.8.8,0,0,1,.7.2c.3,0,.2-.2.1-.4a2.6,2.6,0,0,1,.7-2.4,2,2,0,0,1,2.3-.1h.2c.2.1.5.2.6.4s.1,1.1.2,1.6-.3.3-.4.4-.4.2-.3.5a.4.4,0,0,1,.1.3l1.2-.2.2-.7a.1.1,0,0,0,.1.1.7.7,0,0,0,.7.7h4.9c.2,0,.5-.1.5.3h.1v-.8c0-.1.1-.1.1-.2v.2c.1.2,0,.4.1.5s-.1.3.2.2l.2.4H52v.4H48.7v.2H47a1.8,1.8,0,0,0-1.3.6,1.1,1.1,0,0,0-.2,1.1c0,.2.1.4.1.6s-.5.6-.6.9a1.1,1.1,0,0,1-.6.9h0c-.5.7-1.1.5-1.7.3l-1.6-.8-.2.5c.7.2.7.8.6,1.3a6.1,6.1,0,0,1-.1,1.4,1.8,1.8,0,0,1-.4,1h-.2l-.4-.2a.9.9,0,0,0,.1,1.1,11.9,11.9,0,0,1,2.1,3.8c0,.2.2.3.3.4h0a5,5,0,0,1,.2,1.7l-.3,1.8c0,.2.1.4.1.6s-.1.6-.1.9-.3,1.4.2,2a3.2,3.2,0,0,0,1.3,1c.4.1.5.3.4.6s-.1.2-.2.3a4.5,4.5,0,0,1-2.3-.2H40.9c-.2-.1-.3-.2-.3-.4a6.5,6.5,0,0,0,.4-1.3v-.5a3.7,3.7,0,0,0-.1-1.1l-.3-1.1c-.1-.5-.1-1.1-.2-1.6s.2-.4.2-.6.1-.6.1-.9a.3.3,0,0,0-.5-.3.8.8,0,0,1-.7-.4l-1.1-1.6a.2.2,0,0,0-.2-.2c-.4,0-.6-.3-.8-.6v-.2c-.3.8-.7,1.5-1,2.2a1.3,1.3,0,0,0-.1.6c-.1.3-.1.6-.4.7s-.1.2-.2.2l-.4.6a1.8,1.8,0,0,0-.4.9,2.8,2.8,0,0,1-.1.9,12.2,12.2,0,0,0-.7,1.7l-.2.3c-.6.2-.6.8-.7,1.3a2.2,2.2,0,0,0,.1,1.4c.2.4,0,.6-.4.6H31.5a.3.3,0,0,1-.3-.3c.1-.4,0-.7.1-1a10.5,10.5,0,0,1,.5-1.9V40a.9.9,0,0,1,0-1.1,6.6,6.6,0,0,0,.5-1.5,2.1,2.1,0,0,1,.3-.7l.8-1.3a.4.4,0,0,0,.1-.5,7.2,7.2,0,0,1,.3-2.5,1.3,1.3,0,0,0-.1-.6C33.6,31.6,33.7,31.3,33.6,30.8Zm9.9-7.9.6-.8h-.7c-.2,0-.3.1-.2.3Zm.2-.9c.4.1.5,0,.5-.2v-.2C43.7,21.5,43.7,21.8,43.7,22Z" transform="translate(-6.7 -16.5)"/><path class="cls-1" d="M29.5,31.3H21.3v1.6h6.1a2.4,2.4,0,0,1,2.4,2.4,6.6,6.6,0,0,1-.1,1.4,2.1,2.1,0,0,1-2.2,2.1q-3.2.2-6.3,0a2.3,2.3,0,0,1-2.2-2h8.4V35h-6A2.4,2.4,0,0,1,19,32.6V31.5a2.3,2.3,0,0,1,2.2-2.3h6.2A2.2,2.2,0,0,1,29.5,31.3Z" transform="translate(-6.7 -16.5)"/><path class="cls-1" d="M48.2,31v5.8h6.7v-2H51.7a2,2,0,0,1-1.9-1.5H57v3.4a2.1,2.1,0,0,1-2.1,2.1H48.4a2.3,2.3,0,0,1-2.3-2.3V31.4a2.3,2.3,0,0,1,2.3-2.3h6.4A2.1,2.1,0,0,1,56.9,31Z" transform="translate(-6.7 -16.5)"/><path class="cls-1" d="M64.1,29.1H67a2.3,2.3,0,0,1,2.3,2.3v5.2a2.1,2.1,0,0,1-2.1,2.1H60.9a2,2,0,0,1-2-2,50.5,50.5,0,0,1,0-5.5A2.1,2.1,0,0,1,61,29.1Zm3.1,1.8H61v6h6.2Z" transform="translate(-6.7 -16.5)"/><path class="cls-1" d="M17.2,36.6a2.2,2.2,0,0,1-.7,1.6,2.3,2.3,0,0,1-1.6.6c-2,0-3.9.1-5.9,0a2.3,2.3,0,0,1-2.3-2.3v-5A2.3,2.3,0,0,1,9,29.2h5.9a2.3,2.3,0,0,1,2.3,2.2H9.3v5.2Z" transform="translate(-6.7 -16.5)"/></svg>