<svg id="Layer_17" data-name="Layer 17" xmlns="http://www.w3.org/2000/svg" viewBox="0 0 65.3 21.4"><defs><style>.cls-1{fill:#fff;}</style></defs><path class="cls-1" d="M19.4,21.5l-1.5,1.6-.3-.2a5.6,5.6,0,0,0-6.4-.8,5.7,5.7,0,0,0-3.4,5.4,5.8,5.8,0,0,0,5.1,6.1,5.5,5.5,0,0,0,5.3-1.8,5,5,0,0,0,1.1-2.7H13.8V26.9h7.7c0,.5.1,1,.1,1.4-.1,3.2-1.4,5.7-4.5,7a8.4,8.4,0,1,1-4.9-15.9,8.2,8.2,0,0,1,7,1.9h.2Z" transform="translate(-5.3 -19.3)"/><path class="cls-1" d="M46.2,37.6l1.9-.8,1.2,1.3a2.8,2.8,0,0,0,2.9.3,2.5,2.5,0,0,0,1.6-2.2V34.8a10.1,10.1,0,0,1-1.8.9,4.9,4.9,0,0,1-5.3-2.1,5.4,5.4,0,0,1,3.8-8.4,3.7,3.7,0,0,1,3,1c.1.1.2.1.3.3v-.9H56c0,.1.1.2.1.4,0,3.1,0,6.2-.1,9.3a11.1,11.1,0,0,1-.2,1.9A4.5,4.5,0,0,1,52,40.6a5,5,0,0,1-5.6-2.7ZM54,30.7v-.8a3.2,3.2,0,0,0-2.1-2.5,2.9,2.9,0,0,0-3.1,1.1,3.5,3.5,0,0,0-.1,4,2.8,2.8,0,0,0,4.1.8A3.4,3.4,0,0,0,54,30.7Z" transform="translate(-5.3 -19.3)"/><path class="cls-1" d="M39.5,35.9a5.4,5.4,0,1,1,5.4-5.3A5.3,5.3,0,0,1,39.5,35.9Zm-3-5.3a3.1,3.1,0,0,0,2.8,3.2,3,3,0,0,0,3.2-2.3,3.3,3.3,0,0,0-1.7-3.9A3,3,0,0,0,36.5,30.6Z" transform="translate(-5.3 -19.3)"/><path class="cls-1" d="M27.9,35.9a5.4,5.4,0,1,1,5.4-5.3A5.3,5.3,0,0,1,27.9,35.9Zm0-8.6h-.6a3.2,3.2,0,0,0-2.4,3.8,3,3,0,0,0,6-.8A3,3,0,0,0,27.9,27.3Z" transform="translate(-5.3 -19.3)"/><path class="cls-1" d="M68.8,32.4l1.7,1.2a5,5,0,0,1-3.4,2.2,5.4,5.4,0,0,1-5.9-3A5.5,5.5,0,0,1,63,26.1a4.7,4.7,0,0,1,7,1.7c.3.4.4.9.7,1.4l-7.2,3C64,33.9,67.1,34.7,68.8,32.4Zm-5.7-2,4.8-2a2.2,2.2,0,0,0-2.6-1.1A3,3,0,0,0,63.1,30.4Z" transform="translate(-5.3 -19.3)"/><path class="cls-1" d="M59.7,35.6H57.5V19.9h2.2Z" transform="translate(-5.3 -19.3)"/></svg>