<svg id="Layer_6" data-name="Layer 6" xmlns="http://www.w3.org/2000/svg" viewBox="0 0 63 21"><defs><style>.cls-1{fill:#fff;}</style></defs><path class="cls-1" d="M23.3,29.9V23.5a4.3,4.3,0,0,1-.1-.5c0-.1-.1-.2-.2-.3a.2.2,0,0,1-.2-.2v-.2a2.2,2.2,0,0,0,.9-1.2,1.9,1.9,0,0,0,.3-1,.4.4,0,0,0,.1-.3h.2l.3.7.3.9.6.9h.1a.1.1,0,0,1,0,.2h-.1c0,.1-.1.1-.1.2a.8.8,0,0,1-.1.4v8.3h0a.6.6,0,0,1,.1.4v.4l.3.5a.1.1,0,0,1,.1.1l-.4.2-.7.4a2.3,2.3,0,0,0-.8.9l-.3.7h-.1s0,.1-.1,0h0a.8.8,0,0,0-.2-.5,1.9,1.9,0,0,0-.7-1.2l-.8-.5h-.5v-.2h.1l.3-.3c0-.2.1-.3,0-.4v-.5a.8.8,0,0,0-.1-.4,1.1,1.1,0,0,0-.1-.5c0-.2-.1-.4-.1-.6a1.1,1.1,0,0,1-.1-.5.8.8,0,0,1-.1-.4,2.9,2.9,0,0,1-.2-.9c0-.1-.1-.1-.1-.2s-.1-.4-.1-.6-.1-.4-.1-.6a1.1,1.1,0,0,1-.1-.5,6.4,6.4,0,0,0-.2-.7h0v6.1a.4.4,0,0,0,.1.3h0a.9.9,0,0,0,.3.6h.1V33h-.1a1,1,0,0,0-.5.4,2.7,2.7,0,0,0-.6,1.2l-.3.7h0a.1.1,0,0,1-.2,0h0a.9.9,0,0,1-.1-.5,3.6,3.6,0,0,0-.4-.9c-.1-.2-.1-.3-.3-.4l-.4-.3h-.1c-.1-.1-.1-.1,0-.2h.2a.6.6,0,0,0,.3-.6h0a.4.4,0,0,0,.1-.3V23.4a1.1,1.1,0,0,0-.4-.9h-.1c0-.1,0-.2.1-.2h.3l.6-.4a2.4,2.4,0,0,0,.6-.8l.5-.9v-.2H20l.3.8a3.2,3.2,0,0,0,1.1,1.2l.6.4c.1.1.1.1.1.2a.8.8,0,0,0-.2.5v.2c0,.1-.1.3,0,.4v.2c.1.2.1.5.2.7a1.3,1.3,0,0,0,.1.6,1.3,1.3,0,0,1,.1.6c.1.2.1.4.2.6v.6c0,.2,0,.3.1.4a1.3,1.3,0,0,0,.1.6.4.4,0,0,0,.1.3v.4a.6.6,0,0,1,.1.4,6.4,6.4,0,0,1,.2.7v.2Z" transform="translate(-6.5 -19.5)"/><path class="cls-1" d="M52.1,27.4V23.2a.6.6,0,0,0-.1-.4c0-.2-.1-.3-.3-.4h-.2v-.2h.1l.2-.2a.9.9,0,0,0,.6-.6,2.1,2.1,0,0,0,.3-.7,5.9,5.9,0,0,1,.4-.8v-.2h.2a.1.1,0,0,1,.1.1v.2l.3,1,.2.4.2.3a1.2,1.2,0,0,0,.5.5c.2.1.2.2.1.3a.9.9,0,0,0-.3.6v3.4c0,.1.1.2.1.3s.2.3.4.3H55a.5.5,0,0,0,.2-.4V22.7a.8.8,0,0,0-.1-.4H55c0-.1,0-.1-.1-.1H55a1.8,1.8,0,0,0,.7-.5,4.3,4.3,0,0,0,.4-.7l.3-.9c0-.2.1-.3.1-.4a.1.1,0,0,1,.1-.1c.1,0,.1,0,.1.1a.3.3,0,0,1,.1.2,4.2,4.2,0,0,0,.4,1l.3.7.6.5c0,.1,0,.1.1.1s.1.1,0,.1l-.4.4a.6.6,0,0,0-.1.4.9.9,0,0,0-.1.5v7.9a.7.7,0,0,0,.1.5.8.8,0,0,0,.2.5l.3.3a.1.1,0,0,1,0,.2.9.9,0,0,0-.6.4c-.1.1-.2.2-.2.3a3.4,3.4,0,0,0-.6,1.2l-.3.6h-.1a.1.1,0,0,1-.1-.1c0-.2-.1-.3-.1-.5a4.1,4.1,0,0,0-.3-.8,4.1,4.1,0,0,0-.5-.9l-.3-.3c-.2-.1-.2-.1-.1-.2h.1a.6.6,0,0,0,.1-.4V28.5h0c-.1-.3-.4-.4-.6-.2v.2a.4.4,0,0,0-.1.3v3.2a1.1,1.1,0,0,0,.3.8v.2l-.4.3a1.5,1.5,0,0,0-.4.6l-.3.9c0,.2-.1.3-.1.5v.2h-.2c0-.2-.1-.3-.1-.5l-.3-.7-.6-.9-.6-.4v-.2h.1A1.6,1.6,0,0,0,52,32c0-.2.1-.3.1-.5Z" transform="translate(-6.5 -19.5)"/><path class="cls-1" d="M9.3,26a.1.1,0,0,1,.1-.1,3,3,0,0,1,.4-1l.4-1c0-.2.1-.3.1-.4a.9.9,0,0,0,.1-.5h0v-.2h-.1c0-.1,0-.2.1-.2h.2l.3-.3a2.1,2.1,0,0,0,.4-.6,4.3,4.3,0,0,0,.1-.5,1.7,1.7,0,0,0,.2-.5c0-.1.1-.1.1-.2h.2a5.6,5.6,0,0,0,.4,1.2.9.9,0,0,0,.3.6l.3.3a.1.1,0,0,0,.1.1h0l-.3.2-.2.3a4.2,4.2,0,0,1-.4,1c-.2.4-.3.8-.5,1.3L10.9,27a.2.2,0,0,0,0,.3,7.6,7.6,0,0,0,.4,1.1l.6,1.7.5,1.2.3.9a.3.3,0,0,1,.1.2c.1.2.1.3.3.3l.3.2c.1,0,.1,0,.1.1h-.1a.7.7,0,0,0-.5.4,1.6,1.6,0,0,0-.4.7,4.2,4.2,0,0,0-.4,1H12c0,.1,0,.1-.1.1a.1.1,0,0,1-.1-.1,1.9,1.9,0,0,0-.2-.7l-.6-1a1,1,0,0,0-.6-.5h-.1c-.1-.1-.1-.1-.1-.2a.1.1,0,0,0,.1-.1.3.3,0,0,0,.1-.2.2.2,0,0,0,0-.3V32a3.6,3.6,0,0,1-.4-.9l-.3-.8a2.9,2.9,0,0,1-.2-.9c-.1,0-.1-.1-.1-.2H9.3v2.9a.8.8,0,0,0,.2.7h0v.2H9.4a1.3,1.3,0,0,0-.7.6A3.5,3.5,0,0,0,8,34.9a.6.6,0,0,1-.1.4c0,.1,0,.1-.1.1H7.7c0-.2-.1-.4-.1-.6a5.9,5.9,0,0,0-.4-.8,1.7,1.7,0,0,0-.6-.6h0a.3.3,0,0,1-.1-.2,2.5,2.5,0,0,0,.4-.7.6.6,0,0,0,.1-.4V23.3c-.1-.2-.2-.5-.4-.6H6.5c0-.1,0-.2.1-.2l.4-.2a2.1,2.1,0,0,0,.4-.6l.3-.9c.1-.2.1-.4.2-.6A.1.1,0,0,1,8,20h.1c0,.2.1.3.1.5l.3.8a.8.8,0,0,1,.2.4,1.6,1.6,0,0,0,.8.6c.1.1.1.1,0,.2s-.1.3-.2.4v3Z" transform="translate(-6.5 -19.5)"/><path class="cls-1" d="M43.7,25.5a.1.1,0,0,0,.1-.1l.3-.4.2-.5v-.2h0a.4.4,0,0,0-.1-.3c0-.2,0-.5-.2-.6a.2.2,0,0,0-.2-.2c-.1.1-.2.1-.2.2v4.3a.6.6,0,0,0,.1.4.2.2,0,0,0,.2.2h.3l.5-.2c0-.1.1-.2.1-.3a.1.1,0,0,1,.1-.1h.2a1.3,1.3,0,0,0,.6.7l.6.3h0a.6.6,0,0,0-.3.6v2.2c0,.3,0,.5.2.6s.1.2.2.3h.1c0,.1,0,.1-.1.2h-.1l-1,.5a1.8,1.8,0,0,0-.7.5l-.7.9c0,.1-.1.2-.1.3h-.1c0,.1-.1.1-.1,0s-.1-.1-.1-.2a4.3,4.3,0,0,0-.4-.7l-.4-.4a2.1,2.1,0,0,0-1-.6c-.2-.2-.5-.2-.7-.3h-.2c-.1-.1-.1-.2,0-.2h0l.2-.2c.1-.2.2-.3.2-.5l.2-.4h0V25.7h0a2.7,2.7,0,0,0,0-.9V23.4l-.3-.5-.3-.5h-.1c0-.1,0-.2.1-.2h.5a3.1,3.1,0,0,0,1.3-.6,2.3,2.3,0,0,0,.7-1,1.4,1.4,0,0,0,.2-.6h.1a.1.1,0,0,1,.1-.1h.1c0,.2,0,.3.1.4a2.4,2.4,0,0,0,.6,1.1,2.3,2.3,0,0,0,1,.7h.8c.1,0,.1.1,0,.2h-.1a2.5,2.5,0,0,0-.4.7.9.9,0,0,1-.1.5h0V24a1.1,1.1,0,0,0,.1.5c0,.1.1.2.1.3l.4.6c.1.1.1.1,0,.2H46a1.8,1.8,0,0,0-.5.7c-.2.2-.2.4-.3.6a.3.3,0,0,1-.1.2c0,.1,0,.1-.1.1h-.1a3.4,3.4,0,0,0-.6-1.2c-.1-.2-.3-.3-.4-.4Zm.7,5.5a2.3,2.3,0,0,0-.1-.7v-.4l-.3-.2c-.2,0-.3.1-.3.2s-.1.2-.1.4v1.9c0,.1.1.2.1.3s.3.2.5,0a1.4,1.4,0,0,0,.2-.6Z" transform="translate(-6.5 -19.5)"/><path class="cls-1" d="M66.5,27.6v4.1a1.4,1.4,0,0,0,.5,1h.2V33H67a1.6,1.6,0,0,0-.8.6,3.3,3.3,0,0,0-.6,1c-.1.2-.1.4-.2.6h0a.1.1,0,1,1-.2,0c0-.1-.1-.2-.1-.4a4.7,4.7,0,0,0-.5-1,1.8,1.8,0,0,0-.5-.7l-.4-.2h-.2c-.1,0-.1-.1,0-.1s0-.1.1-.1h.2l.3-.6c0-.1.1-.2.1-.4V23.4l-.3-.2-.4.2a1.1,1.1,0,0,0-.1.5.7.7,0,0,0,.1.5v.3a.4.4,0,0,1-.1.3,2.2,2.2,0,0,0-.7.9c-.1.2-.1.4-.2.6s0,.1-.1.1h-.1a4.3,4.3,0,0,1-.1-.5l-.2-.4-.5-.6c-.1,0-.1,0-.1-.1s-.1-.1-.1-.2.2-.4.3-.6v-.8c0-.1-.1-.3-.1-.4l-.2-.3h0c0-.1,0-.2.1-.2H62l.9-.3.6-.2.8-.5.4-.3.2-.3.3-.5c0-.1.1-.2.1-.3h.2c.1.1.1.1.1.2l.3.5a2.8,2.8,0,0,0,.9,1l1.1.5.8.2h.7a.1.1,0,0,1,.1.1h0c-.1.2-.2.3-.2.4h0c-.1.1-.1.1-.1.2v.8h0c.1.2.1.4.2.5s.1.3,0,.4a1.6,1.6,0,0,0-.7.9,1.4,1.4,0,0,1-.2.6h-.1c-.1,0-.1,0-.1-.1s-.1-.3-.1-.4a2.1,2.1,0,0,0-.6-1l-.3-.2h-.1c-.1,0-.1-.1-.1-.2s.1-.1.1-.2l.2-.5c0-.2-.1-.6-.4-.7s-.3-.1-.4,0h-.1v4.2Z" transform="translate(-6.5 -19.5)"/><path class="cls-1" d="M32.2,28.4V23.7a1.1,1.1,0,0,0-.3-.8l-.3-.2h-.1c-.1-.1,0-.1,0-.2a.5.5,0,0,0,.4-.2l.4-.3.4-.5c0-.1.1-.1.1-.2a2,2,0,0,0,.4-.8c0-.2.1-.3.1-.5h.2v.3a.4.4,0,0,1,.1.3c0,.1.1.1.1.2s.1.2.1.4a.3.3,0,0,1,.1.2l.3.4a1,1,0,0,0,.6.5l.3.2c.1.1.1.1,0,.2H35a1.5,1.5,0,0,0-.6.9h0v9.7c0,.1-.1.1-.1.2l-.5.6a.8.8,0,0,0-.2.5c-.1.2-.2.3-.2.5s-.1.1-.1.2h-.2a2.5,2.5,0,0,0-.4-1.1l-.3-.4a.3.3,0,0,1-.1-.2c-.1-.1-.2-.2-.2-.3V28.4Z" transform="translate(-6.5 -19.5)"/><path class="cls-1" d="M19.1,40.3a2.4,2.4,0,0,1-1.4-.5,2.2,2.2,0,0,1-.5-.8,1.1,1.1,0,0,1,.1-.8c.1-.4.4-.6.8-.8l.7-.2c.2-.1.4,0,.7,0l.6.2.4.4a1,1,0,0,1,.4.5c0,.2.1.4,0,.5a1.4,1.4,0,0,1-.5,1,2.2,2.2,0,0,1-1.1.5Zm1.5-1.7h0a.1.1,0,0,0-.1-.1.4.4,0,0,0-.1-.3,1.1,1.1,0,0,0-1-.6h-.2v.9h1.4Zm-1.4,1.3c.1,0,.1.1.2,0l.7-.2.4-.6a.4.4,0,0,0,.1-.3H19.2Zm-.3-1.3v-.8c0-.1.1-.2,0-.3h-.2a1.2,1.2,0,0,0-.9.5,1.1,1.1,0,0,0-.2.6h1.3Zm-1.3.2a1.1,1.1,0,0,0,.3.8,1.3,1.3,0,0,0,.8.3c.1.1.1.1.2,0h0v-1H17.6Z" transform="translate(-6.5 -19.5)"/><path class="cls-1" d="M28.1,39.4v-.2a.6.6,0,0,1-.1-.4V37.6c0-.2.1-.3-.2-.3h0c0-.1,0,0,.1-.1h.7c-.1,0-.1.1-.1.2h0v2.2h0c0,.2,0,.2.2.2H28a.2.2,0,0,0,0-.3l-.6-.6-.9-1c0-.1,0-.1-.1-.1h0v1.7h.2a.1.1,0,0,1,.1.1h-.9c.1,0,.2,0,.2-.2h0V37.6h0a.2.2,0,0,0-.2-.2h0c.1-.1.3,0,.4,0s.2-.1.4,0h0a.1.1,0,0,0-.1.1.1.1,0,0,0-.1.1c0,.1.1.1.1.2L27.7,39l.2.3Z" transform="translate(-6.5 -19.5)"/><path class="cls-1" d="M47.5,38.1V40h.2c.1,0,.1,0,.1.1h-.9c.1,0,.2,0,.2-.1V37.6h0c0-.2,0-.3-.2-.3h0a2.1,2.1,0,0,1,.8,0h-.1a.2.2,0,0,0,0,.3l.5.6.9,1.1h.2V37.6h0c-.1-.1-.1-.2-.2-.2h0a1.1,1.1,0,0,1,.8,0h-.1c-.1,0-.1.1-.1.2h0V40c0,.1,0,.1.1.1h-.9a.1.1,0,0,1,.1-.1h.2a.2.2,0,0,0,0-.3l-.2-.3-1.3-1.3c0-.1,0-.1-.1-.1Z" transform="translate(-6.5 -19.5)"/><path class="cls-1" d="M57,40.5c-.2,0-.2,0-.2-.1s-.1-.1-.2-.1H55.3c-.1,0-.2,0-.2.1H55V38.9a.3.3,0,0,0-.1-.2h-.2c0,.1,0,.1-.1.1h0a.1.1,0,0,1-.1-.1v-.7h.1c0,.1,0,.1.1.1v.2h.1V37.2h1.7a.1.1,0,0,0,.1-.1h0a.1.1,0,0,0,.1-.1.1.1,0,0,1,.1.1h0v.6h-.2c0-.1-.1-.1-.2-.1H55.4v.7h1.2a.2.2,0,0,0,.2-.2h.1a.1.1,0,0,1,.1.1h0v.7H55.4v1h1.2c.2,0,.2,0,.2-.2h.1v.8Z" transform="translate(-6.5 -19.5)"/><path class="cls-1" d="M34.3,39.9H36c0-.1.1-.1.1-.2h0s0-.1.1,0h0v.6h-.1c0-.2-.2-.2-.3-.2H34.2c-.1,0-.2,0-.2.1h-.2V37.4c0-.1-.1-.1-.2-.1h0a1.4,1.4,0,0,1,.9,0h0c-.2,0-.2.1-.2.2h0v2.3Z" transform="translate(-6.5 -19.5)"/><path class="cls-1" d="M41.5,40.3H41c.3,0,.3,0,.3-.3V37.6c0-.2,0-.3-.3-.3h.1a2.2,2.2,0,0,1,.8,0h0a.2.2,0,0,0-.2.2h0V40c0,.1.1.1.2.1a.1.1,0,0,1,.1.1h-.5Z" transform="translate(-6.5 -19.5)"/></svg>