<svg id="Layer_3" data-name="Layer 3" xmlns="http://www.w3.org/2000/svg" viewBox="0 0 62.3 23.8"><defs><style>.cls-1{fill:#fff;}</style></defs><path class="cls-1" d="M37.6,18.1l1.4.2a5.1,5.1,0,0,1,3.3,2.5l-1.8.8c0,.1-.3,0-.3-.1a3.3,3.3,0,0,0-4.2-1,3.6,3.6,0,0,0-1.8,3.9,3.4,3.4,0,0,0,3.4,2.7,2.8,2.8,0,0,0,2.7-1.6c.1-.1.1-.3.2-.6H36.7l.8-1.6.5-.2h4.3c.4,0,.5.1.5.4a5.2,5.2,0,0,1-5.7,5.6,5.7,5.7,0,0,1-5.2-5,5.7,5.7,0,0,1,4.6-5.9h1.1Z" transform="translate(-6.8 -18.1)"/><path class="cls-1" d="M52.4,18.1v.6c-.1,2.1-.1,4.3-.1,6.4a3.9,3.9,0,0,1-4.2,4,3.7,3.7,0,0,1-3.7-1.9,5.5,5.5,0,0,1-.6-1.8V18.6c0-.3.2-.4.5-.4h1.2c.4,0,.5.1.5.5s0,3.4-.1,5.1.1,1,.1,1.4A1.9,1.9,0,0,0,48.1,27a1.9,1.9,0,0,0,2-1.8c0-1.5,0-3,.1-4.4s-.1-1.8-.1-2.7Z" transform="translate(-6.8 -18.1)"/><path class="cls-1" d="M40.8,30.9H43a.8.8,0,0,1,.6.4l4.3,6.1.4.6h.2V31.4c0-.4.1-.5.6-.5s1.5,0,1.5,1.5v8.5c0,.4-.1.6-.6.6a2.3,2.3,0,0,1-2.6-1.3c-1.1-1.8-2.5-3.5-3.7-5.2l-.4-.5h-.2v6.3c0,.5-.1.6-.6.6h-1c-.4,0-.5-.1-.5-.5V33A14.9,14.9,0,0,0,40.8,30.9Z" transform="translate(-6.8 -18.1)"/><path class="cls-1" d="M32,33.5l-1.6.8-.5-.2A3.4,3.4,0,0,0,23.8,36a3.6,3.6,0,0,0,2.1,3.5,3.2,3.2,0,0,0,3.7-.7l.7-1.2H26.4a13.8,13.8,0,0,1,.8-1.7h4.9c.3,0,.4.1.4.4a5.2,5.2,0,0,1-5.6,5.6,5.5,5.5,0,0,1-.7-10.9,5.4,5.4,0,0,1,5.4,2A.9.9,0,0,1,32,33.5Z" transform="translate(-6.8 -18.1)"/><path class="cls-1" d="M51.8,36.2V31.5q0-.7.6-.6a25.4,25.4,0,0,1,3.9.1,5.2,5.2,0,0,1-.1,10.4h-4c-.4,0-.4-.3-.4-.5Zm2.2,0V38c0,1.8-.3,1.5,1.4,1.5a3.3,3.3,0,0,0,1-6.4,6.2,6.2,0,0,0-1.9-.2c-.4-.1-.5.1-.5.5Z" transform="translate(-6.8 -18.1)"/><path class="cls-1" d="M32.5,28.8H30.6a.4.4,0,0,1-.4-.4,7.5,7.5,0,0,1-.6-1.3.7.7,0,0,0-.5-.3,22.8,22.8,0,0,0-3.7,0,.5.5,0,0,0-.5.3,5,5,0,0,0-.5,1.3.5.5,0,0,1-.6.4H22l.2-.5c1.1-2.7,2.1-5.3,3.3-8a1.5,1.5,0,0,0-.1-1.6c-.1-.1-.1-.3-.2-.4h2.7a.9.9,0,0,1,.5.3l4.1,10.2Zm-3.8-4-1.3-3.7h-.2l-1.4,3.7Z" transform="translate(-6.8 -18.1)"/><path class="cls-1" d="M68.7,32.9l-1.9.9a1.6,1.6,0,0,0-2.1-1.1,1.1,1.1,0,0,0-.4,2.1l1.3.4,1.4.5a3.1,3.1,0,0,1,1.2,4.9,4.7,4.7,0,0,1-6.7-.4c-.1-.1-.1-.3-.3-.5l1.7-.7c.1-.1.3.1.4.2a2.2,2.2,0,0,0,2.4.7c.6-.2,1-.5,1-1.1s-.2-.9-.8-1.2l-1.1-.4-1.4-.4c-2.5-.7-2.4-3.7-1-5a4.3,4.3,0,0,1,6,.6Z" transform="translate(-6.8 -18.1)"/><path class="cls-1" d="M20.6,22.5a5.4,5.4,0,0,1-.4,1.5.5.5,0,0,1-.5.3H17.5a.5.5,0,0,0-.6.6,12.1,12.1,0,0,1,.1,2h3.6c.3,0,.4.1.4.4,0,1.9.3,1.5-1.4,1.5H15.3c-.4,0-.6-.1-.6-.5q.2-4.8,0-9.6c0-.4.2-.5.6-.5h5.2c.4,0,.5.1.5.5s.1,1.4-1.4,1.4H17.4c-.3,0-.5.1-.5.5a3.3,3.3,0,0,1,0,1.4c0,.4.2.5.5.5h3.2Z" transform="translate(-6.8 -18.1)"/><path class="cls-1" d="M20.6,35.2a7.5,7.5,0,0,1-.4,1.6l-.5.2H17.4c-.3,0-.5.1-.5.5a4.3,4.3,0,0,1,0,1.6c0,.4.2.5.6.5h3c.4,0,.5.1.5.5s0,1.4-1.3,1.4H15.3c-.4,0-.6-.1-.6-.5q.2-4.8,0-9.6c0-.4.2-.5.6-.5h5.2c.4,0,.5.1.5.5s.1,1.4-1.4,1.4H17.4c-.3,0-.5.1-.5.5a3.3,3.3,0,0,1,0,1.4c0,.3.2.5.5.4h3.2Z" transform="translate(-6.8 -18.1)"/><path class="cls-1" d="M59.4,22.6a8.3,8.3,0,0,1-.4,1.5l-.5.2H56.3a.5.5,0,0,0-.6.6v1.4c0,.4.2.6.5.6h3c.6,0,.7.2.7.7s0,1.2-1.3,1.2H54.2c-.5,0-.6-.1-.6-.6V18.8c0-.5.1-.6.6-.6h5.1c.5,0,.6.2.6.6s0,1.3-1.4,1.3H56.3c-.4,0-.6.1-.6.6V22c0,.4.2.5.6.5h3.1Z" transform="translate(-6.8 -18.1)"/><path class="cls-1" d="M39.4,35.1c-.1.7-.3,1.2-.4,1.7l-.5.2H36.2c-.4,0-.5.2-.5.5V39a.5.5,0,0,0,.6.6h2.9c.5,0,.6.1.6.6s0,1.3-1.3,1.3H34.1c-.4,0-.5-.1-.5-.5V31.4c0-.4.1-.5.5-.5h5.2c.4,0,.5.1.5.5s.2,1.4-1.3,1.4H36.3c-.4,0-.6.1-.6.5v1.3c0,.4.2.6.6.5Z" transform="translate(-6.8 -18.1)"/><path class="cls-1" d="M6.8,28.8c.8-1.2.5-2.4.5-3.6s0-2.9,0-4.4a3.6,3.6,0,0,0-.5-2.6H9.2c.1,0,.2.3.2.5.1,2.3.1,4.6.1,6.9s0,1.2,1.2,1.2h2.6c.3,0,.4.1.4.5s-.4,1.5-2,1.5Z" transform="translate(-6.8 -18.1)"/><path class="cls-1" d="M13.8,39.5c-.2.7-.3,1.2-.5,1.7l-.4.3H7a.1.1,0,0,0-.1-.1c.7-1.2.4-2.6.4-3.9s0-2.7,0-4,.2-1.8-.5-2.6H9.2c.1,0,.2.3.2.5.1,1.8.1,3.7.1,5.5v1.9c0,.7,0,.7.6.7h3.7Z" transform="translate(-6.8 -18.1)"/><path class="cls-1" d="M65.6,23.5A2.5,2.5,0,0,1,63.2,26a2.6,2.6,0,0,1-2.5-2.5,2.5,2.5,0,0,1,4.9,0ZM63.2,25a1.4,1.4,0,0,0,1.4-1.4,1.4,1.4,0,1,0-2.8,0A1.4,1.4,0,0,0,63.2,25Z" transform="translate(-6.8 -18.1)"/><path class="cls-1" d="M68.8,23.3c-.1.8-.1.9-.8.9s-.7.1-.6.6v.4c0,.6-.1.6-.7.6s-.4-.1-.4-.4V21.5c0-.3.1-.4.4-.4h2c.4,0,.4.2.5.5s-.1.5-.5.5H68c-.5-.1-.6.1-.6.5s.1.8.6.7Z" transform="translate(-6.8 -18.1)"/></svg>