<svg id="Layer_15" data-name="Layer 15" xmlns="http://www.w3.org/2000/svg" viewBox="0 0 62.7 14.9"><defs><style>.cls-1{fill:#fff;}</style></defs><path class="cls-1" d="M13.8,30.2v-.3h.4c0-.8.7-1.3.8-2s.4-.7.7-.9,2.7-.2,4-.3a8.1,8.1,0,0,0,.7,2.2c.3.7.8.8,1.2.4s.1-.8.6-.8.7-1,.7-1.6a.4.4,0,0,0,.1-.3h0c.3,0,.5.2.7,0s.4-.3.5.1a.4.4,0,0,0,.6.3c.3-.2,0-.4-.1-.5s-.7-.3-1-.6.6-.1.8-.3h.2l.6.6c-.2.6.2.5.5.5a.2.2,0,0,0,.2-.2h.5v.3c-.1.9,0,1.9-.2,2.9s-.1-.5-.3-.5a3.4,3.4,0,0,0-2,0,.5.5,0,0,0-.4.6l-.5.2c-.1-.1-.2-.4-.3-.3s-1.3.2-1.8.7l-.5-.2c-.5-.2-.9.3-1.4.2l-.2.3c-.2-.2-.1-.7-.6-.6a2.8,2.8,0,0,0-.6-1.4l-.3.8c-.3.4-.2.9-.7,1.1a.8.8,0,0,0-1-.2,3.1,3.1,0,0,1-1.9,0Zm9.6-.8h-.1c0,.1,0,.2.1.2Z" transform="translate(-6.7 -22.5)"/><path class="cls-1" d="M62.3,34.2c0,.2,0,.3.2.3a16.7,16.7,0,0,1,3.1-.5c1.5-.1,2.4-1,3.5-1.8h.2c-.4.5-.1,1.1-.6,1.4s0,.3,0,.4.2,0,.3,0,.3,0,.3.2a1.7,1.7,0,0,1-1,1.8,8.2,8.2,0,0,1-4.6,1,23,23,0,0,1-3.7-.2h-.4a2.4,2.4,0,0,1-2.2-.2c-.5-.2-.6-.6-.8-1s0-.3.1-.3l1.2-.9a16.3,16.3,0,0,0,3.8-2.4h.4c-.2.5-.7.6-1,.9a21.2,21.2,0,0,1-3.5,2.3c-.2.1-.4.2-.4.4s-.3.4.2.6a3.1,3.1,0,0,0,2.5.2h.2a7.5,7.5,0,0,1,2.1.2,11.1,11.1,0,0,0,1.9-.2,6,6,0,0,0,2.7-.6c.5-.2.4-.4,0-.6s-.2-.5-.6-.3h-.4c-.1-.3-.4-.3-.7,0a24.8,24.8,0,0,1-2.7-.3c-.2.1-.5.2-.6-.1s.3-.3.4-.5Z" transform="translate(-6.7 -22.5)"/><path class="cls-1" d="M63.7,27.1a2.4,2.4,0,0,1,1.1.9c-.1.5.5.8.4,1.2h-.7c-.5.2-1.2-.1-1.3.8s.1-.6-.2-.8h0a1,1,0,0,0-1.3-.9c-.8.1-1.2.7-1.6,1.3a2.2,2.2,0,0,0-1.6.3c0-.3-.2-.7,0-1a18.6,18.6,0,0,1,2.8-2.1c.1-.4.3-.1.5,0Z" transform="translate(-6.7 -22.5)"/><path class="cls-1" d="M17.8,23.1a2.8,2.8,0,0,1,1.5.8.7.7,0,0,1,.2.6c-.2.1,0,.2,0,.3a5,5,0,0,0-1.7.2,2.2,2.2,0,0,1-1.6-.1,3.2,3.2,0,0,1-.2-1.4c0-.5.2-.8.8-.6A1.8,1.8,0,0,0,17.8,23.1Z" transform="translate(-6.7 -22.5)"/><path class="cls-1" d="M16.8,30.6c.5-.2.4-.7.7-1.1l.2.2A8.8,8.8,0,0,1,15.9,33c-.7.8-1.1,1.9-1.8,2.6s-1.7,1.7-3.1,1.8-2.1-.2-3.3,0-.7-.4-.9-.7v-.2h0c.1,0,.2-.1.3.1a1.4,1.4,0,0,0,1.1.5,4,4,0,0,1,1.1,0A4.2,4.2,0,0,0,14,35a17.7,17.7,0,0,1,1.6-2.2,1.9,1.9,0,0,0,.8-1.6A.5.5,0,0,0,16.8,30.6Z" transform="translate(-6.7 -22.5)"/><path class="cls-1" d="M50.3,34.6a2,2,0,0,1-.1,1.7,1.5,1.5,0,0,1-2.4,0c0-.1,0-.3-.2-.1s-.7.3-1.1.2a5.4,5.4,0,0,0-2.2,0c-.9.3-1.5-.3-1.5-1.4h.3c0,1,.3,1.2,1.3,1.1a4.5,4.5,0,0,1,2-.1c.5.2.9.1,1-.4s-.3-.6-.5-.7-.8-.1-1.1-.2h-.1v-1h0c.1-.1.1-.1.1-.2h.2v.8c0,.2,0,.4.2.4a2.4,2.4,0,0,1,1.9,1v.3c0,.6.5.7.9.7s1.1,0,1.2-.8a2.8,2.8,0,0,1,.1-.9Z" transform="translate(-6.7 -22.5)"/><path class="cls-1" d="M34.4,34.6h.3a1.2,1.2,0,0,1,1.2.6c.2.4-.1.6-.3.9s-.6.7-1.2.5a8.8,8.8,0,0,0-2.8-.2,3.5,3.5,0,0,0-1.1.3,1.8,1.8,0,0,1-2-.2.9.9,0,0,1-.3-1.1c.2,0,.3-.4.7-.4s-.4.5-.4.8a.9.9,0,0,0,1.2.7,9.5,9.5,0,0,1,4.4-.4,1,1,0,0,0,.9,0,.6.6,0,0,0,.4-.7c0-.3-.1-.6-.5-.6h-.5Z" transform="translate(-6.7 -22.5)"/><path class="cls-1" d="M58.5,29c-.2.3,0,.7,0,1s-.1.5.2.7.1-.5.6-.2.3.1.4-.1l.4-.7c.4-.6.8-1.2,1.6-1.3a1,1,0,0,1,1.3.9h-.1c-.5-.7-.8-.7-1.4-.4a2.2,2.2,0,0,0-1.1,1,2.2,2.2,0,0,1-1.3,1.4.5.5,0,0,1-.6-.2,2.2,2.2,0,0,1-.2-2.1Z" transform="translate(-6.7 -22.5)"/><path class="cls-1" d="M18.4,30.1c.5-.1.4.4.6.5s-.2.5.1.7-.1.5-.1.7a1.2,1.2,0,0,0,.8,1,1.4,1.4,0,0,0,1.5-.7c.5-.4,1.1-.7,1.3-1.3a1.5,1.5,0,0,0,.6-1l.5-.2v.4c0,.1-.2,0-.2.1a7.2,7.2,0,0,1-1.7,2.2,2,2,0,0,1-2.3.7,1.5,1.5,0,0,1-.8-1.4,2.7,2.7,0,0,0-.3-1.5Z" transform="translate(-6.7 -22.5)"/><path class="cls-1" d="M23.7,30.2v-.4a.5.5,0,0,1,.4-.6,3.4,3.4,0,0,1,2,0c.2,0,.1.4.3.5v1l-.4-.3c-.5,0-.9.2-1.3,0s0-.3-.1-.3-.2.2-.2.3h-.5Z" transform="translate(-6.7 -22.5)"/><path class="cls-1" d="M65.2,29.2c.1-.4-.5-.7-.4-1.2a2.9,2.9,0,0,1-.8,4.9,4.3,4.3,0,0,0-1,.9,1,1,0,0,1-.7.4h-.1l.9-.9.7-.6A3.2,3.2,0,0,0,65.2,29.2Z" transform="translate(-6.7 -22.5)"/><path class="cls-1" d="M19.5,24.8c0-.1-.2-.2,0-.3a1.1,1.1,0,0,1,.5,1.4,6.1,6.1,0,0,0,.1,1.4,3.8,3.8,0,0,0,.8,1.7c.1.2.4.4.4,0a1.5,1.5,0,0,1,.6-.9c.5-.2.4-.8.6-1.2a3,3,0,0,0,.4-1h.2a1.5,1.5,0,0,1-.1.7h0a.4.4,0,0,0-.1.3c0,.6-.7,1-.7,1.6s-.4.5-.6.8-.9.3-1.2-.4a8.1,8.1,0,0,1-.7-2.2v-.5C19.7,25.7,20,25.2,19.5,24.8Z" transform="translate(-6.7 -22.5)"/><path class="cls-1" d="M23.6,24.5a.4.4,0,0,0-.1-.3c-.3-.5-.2-.9.5-1.1a6.7,6.7,0,0,1,1.8.7H26a.8.8,0,0,1,.7.8h-.3c0-.4-.3-.3-.5-.3a7.6,7.6,0,0,0-1.5.1c-.1.2-.3.3-.5.1Z" transform="translate(-6.7 -22.5)"/><path class="cls-1" d="M40.7,29.2a.8.8,0,0,0,.8-.1c.2-.1.8-.2,1,.3v.3c-.1.1-.1.2-.2.2s-1.3.2-2-.1-.4,0-.6.2h-.1a4.4,4.4,0,0,0-1.6-.2c-.4.1-.5,0-.5-.4h1.8C39.8,29.2,40.2,29.4,40.7,29.2Z" transform="translate(-6.7 -22.5)"/><path class="cls-1" d="M45.7,29.1H46c.6.1,1.3-.1,1.8.4l-.5.5c0-.1-.1-.1-.2-.1H44.9A6.1,6.1,0,0,0,43,30v-.2c.2-.5.6-.6,1.2-.5A1.4,1.4,0,0,0,45.7,29.1Z" transform="translate(-6.7 -22.5)"/><path class="cls-1" d="M26.4,30.7v-1c.2-1,.1-2,.2-2.9h.2v1.3h0V29a.2.2,0,0,0,0,.3h0a3.7,3.7,0,0,0,0,2.1,15.6,15.6,0,0,0,.8,4.4c0,.3,0,.4-.1.5h-.2c-.1-.5-.1-1-.2-1.4a10.7,10.7,0,0,1-.6-3C26.5,31.5,26.4,31.1,26.4,30.7Z" transform="translate(-6.7 -22.5)"/><path class="cls-1" d="M43,30a6.1,6.1,0,0,1,1.9,0h2.2c.1,0,.2,0,.2.1s-.3.3-.3.5h-.2c-.1-.4-.4-.3-.7-.3s-.3.2-.2.5h-1v-.3h-.2c-.1-.1-.3-.1-.3,0s-.8-.1-1.2,0h0c.2-.2,0-.2-.1-.3H43Z" transform="translate(-6.7 -22.5)"/><path class="cls-1" d="M35.1,29.3c.4.1.2.5.4.7h0c-.3.7-.8.9-1.8.8a10.9,10.9,0,0,0-1.8.1c-.5,0-.5.5-.6.9v.3c-.4,0-.4-.2-.3-.5l.5-1a9.3,9.3,0,0,1,2.9-.1c.4,0,.5-.2.4-.5s.2-.5.2-.7Z" transform="translate(-6.7 -22.5)"/><path class="cls-1" d="M17.8,23.1a1.8,1.8,0,0,1-1-.2c-.6-.2-.8.1-.8.6a3.2,3.2,0,0,0,.2,1.4,3.3,3.3,0,0,0,0,1L15.7,27c-.3.2-.2.8-.7.9h-.2a4.5,4.5,0,0,0,.9-4c0-.3.1-.6.1-.8s.5-.7.8-.5S17.6,22.5,17.8,23.1Z" transform="translate(-6.7 -22.5)"/><path class="cls-1" d="M34.7,31.8a1.3,1.3,0,0,1-1.2,1.7H31.8c-.6.1-.8.4-.8,1v.3q-.6-1,.3-1.5c.1-.1.3,0,.4-.2H32l1.5-.2c.6.1.7-.1.7-.6s0-.3.1-.4Z" transform="translate(-6.7 -22.5)"/><path class="cls-1" d="M43.2,30.5c.4-.1.8.4,1.2,0h.4v2.8c0,1.8-.1,1.8-1.6,1.7h-.3c.1-.5.6-.2.9-.2s.8-.5.7-1a8.6,8.6,0,0,1,.1-1.6.2.2,0,0,0,0-.4c-.1-.3.2-1-.6-.8A.7.7,0,0,1,43.2,30.5Z" transform="translate(-6.7 -22.5)"/><path class="cls-1" d="M43,30h-.1a1.3,1.3,0,0,1-1.7.7,4.8,4.8,0,0,0-1.2,0v3.5l-.3-.3c-.2-.2,0-.5,0-.8a19.2,19.2,0,0,1,0-2.4h0v-.2h2c.5,0,.8-.2.7-.8v-.3h.2c0,.2-.1.4.2.4Z" transform="translate(-6.7 -22.5)"/><path class="cls-1" d="M53.5,31.5a6.2,6.2,0,0,1,.1-2.7c.1-.4,1-.6,1.6-.4l.8.5c-.1.2.1.5-.2.8s-.3-1.3-1.2-.7h-.2c-.4-.1-.6,0-.6.5s0,.4,0,.6v2.4h-.1C53.5,32.1,53.7,31.8,53.5,31.5Z" transform="translate(-6.7 -22.5)"/><path class="cls-1" d="M28.9,35c-.4,0-.5.4-.7.4a1,1,0,0,1,.4-.5c.7-.3.8-.8.4-1.3s-.2-.7.1-.9.8-1.4,0-2.1v-.2l.4.2c0,.3.2.2.4.2l.2.2a5.5,5.5,0,0,1-.6,1.8l-.3.3c-.2.2,0,.4.1.5S29.5,35,28.9,35Z" transform="translate(-6.7 -22.5)"/><path class="cls-1" d="M53.8,30c0-.2.1-.4,0-.6s.2-.6.6-.5h.2c.9-.6.9.2,1.2.7s.1-.6.2-.8A1.1,1.1,0,0,1,56,30q-.2-.3-.3,0A6,6,0,0,0,53.8,30Z" transform="translate(-6.7 -22.5)"/><path class="cls-1" d="M50.9,30l.5.9h-.2a9.7,9.7,0,0,0-2.4.1c-.2-.3,0-.6,0-1h.3c0,.1.1.3.3.2h1.1v0Z" transform="translate(-6.7 -22.5)"/><path class="cls-1" d="M58.5,29h-.2a4.3,4.3,0,0,1,2-2.2c.4-.1.7-.3,1,.1A18.6,18.6,0,0,0,58.5,29Z" transform="translate(-6.7 -22.5)"/><path class="cls-1" d="M27.5,36.4a1.6,1.6,0,0,1-1.2.8,17.7,17.7,0,0,1-2.3.1c-.6.2-.8-.5-.8-1s.1-.5.1-.8.1.2.2.4.1,1,1.1,1,.1-.1.1,0a3,3,0,0,0,2.6-.6Z" transform="translate(-6.7 -22.5)"/><path class="cls-1" d="M55.4,33.9c.1.5.3,1,.4,1.5a1.3,1.3,0,0,1-.9,1.5,1.9,1.9,0,0,1-1.4-.8c-.1-.4-.4-.7-.5-1.2h.1l.6,1.1c.3.4.6.7,1.1.6s.6-.3.7-.7-.1-.6-.1-1-.5-.6-.2-1Z" transform="translate(-6.7 -22.5)"/><path class="cls-1" d="M23.5,35.9c-.1-.2,0-.3-.2-.4a11.4,11.4,0,0,0,.3-4.1c0-.2-.1-.5.1-.7s.3,0,.3.2-.3.7.1.9-.1.9-.1,1.4A8.6,8.6,0,0,1,23.5,35.9Z" transform="translate(-6.7 -22.5)"/><path class="cls-1" d="M35.1,29.3H29.9v-.3h.5a.5.5,0,0,0,.5,0l3.5-.2C34.7,29,34.8,29.3,35.1,29.3Z" transform="translate(-6.7 -22.5)"/><path class="cls-1" d="M55.4,33.9h-.2a1.3,1.3,0,0,1-.1-.6c.1-.8-.1-1.5.3-2.2a.4.4,0,0,0,.1-.3l.2-.7q.1-.3.3,0A10.3,10.3,0,0,0,55.4,33.9Z" transform="translate(-6.7 -22.5)"/><path class="cls-1" d="M49.1,30h-.2c0-.2-.4-.4-.1-.7a.6.6,0,0,1,.7-.2c.4,0,.6.3,1,.3s.4.3.4.6h-.4C50.1,29.4,49.6,29.8,49.1,30Z" transform="translate(-6.7 -22.5)"/><path class="cls-1" d="M39.7,34l.3.3a3.7,3.7,0,0,1-.2,1.8.8.8,0,0,1-.8.6c-.3-.1-.8-.1-.8-.6s0-.3.1-.4.5.5.8.5.4-.3.5-.6A4.2,4.2,0,0,0,39.7,34Z" transform="translate(-6.7 -22.5)"/><path class="cls-1" d="M42.9,29.8c-.3,0-.2-.2-.2-.4s1.5-.2,2.2-.3a2.1,2.1,0,0,1,.8,0,1.4,1.4,0,0,1-1.6.2C43.5,29.2,43.1,29.3,42.9,29.8Z" transform="translate(-6.7 -22.5)"/><path class="cls-1" d="M50.5,29.4c-.4,0-.6-.3-1-.3a.6.6,0,0,0-.7.2c-.3.3.1.5.1.7h-.4c-.2-.1.1-.5-.2-.7h-.2c.6-.3,1.1-.8,1.8-.5S50.5,29,50.5,29.4Z" transform="translate(-6.7 -22.5)"/><path class="cls-1" d="M30.9,34.9v-.3l2.3-.2,1.1.2h0c-.3.4-.7.1-1,.1A9.7,9.7,0,0,0,31,35Z" transform="translate(-6.7 -22.5)"/><path class="cls-1" d="M23.6,24.5h.3c0,.2,0,.4.3.5s.2.3.3.5-.6-.1-.8.3h-.8C23.3,25.6,23.2,24.9,23.6,24.5Z" transform="translate(-6.7 -22.5)"/><path class="cls-1" d="M11.2,33c.7-.6,1-1.5,1.8-2v.3h-.3c-.2.4-.8.5-.7.9s-.1.6-.4.8S11.3,33.3,11.2,33Z" transform="translate(-6.7 -22.5)"/><path class="cls-1" d="M38.3,35.7c-.1.1-.1.2-.1.4s-.3-.2-.3-.4.1-.7.2-1.1,0-.8.1-1.1v-.3a1.7,1.7,0,0,0,.1-1c0-.1.1-.2.2-.1s0,.1.1.1v2a.6.6,0,0,0-.1.4Z" transform="translate(-6.7 -22.5)"/><path class="cls-1" d="M8.9,35.3l1.2-1.2c.2-.2.4,0,.6-.1v.2c-.1.2-.4.1-.5.3s-.9.6-1.3,1Z" transform="translate(-6.7 -22.5)"/><path class="cls-1" d="M34.7,31.8l-.4.2-3,.2v-.3a6.8,6.8,0,0,0,2-.2A2.3,2.3,0,0,1,34.7,31.8Z" transform="translate(-6.7 -22.5)"/><path class="cls-1" d="M52.2,31.8a5.7,5.7,0,0,1,1.1,1.6h.4c0,.6,0,.6-.5.4h0l-.2-.5h-.2c0-.2,0-.3-.2-.4s-.6-.4-.6-.8Z" transform="translate(-6.7 -22.5)"/><path class="cls-1" d="M14.8,27.9H15c-.1.7-.8,1.2-.8,2h-.4c.3-.4.4-1,.7-1.5S14.6,28,14.8,27.9Z" transform="translate(-6.7 -22.5)"/><path class="cls-1" d="M53.1,34.8H53a6.4,6.4,0,0,0-1-1.3c-.4-.2-.7-.3-.8-.7h.2l.9.7C52.5,34,53.2,34.2,53.1,34.8Z" transform="translate(-6.7 -22.5)"/><path class="cls-1" d="M29.2,30.4v.2l-.3-.3c-.5-1-.5-1.1.7-1.2v.3c-.3,0-.6.1-.5.5S29.1,30.2,29.2,30.4Z" transform="translate(-6.7 -22.5)"/><path class="cls-1" d="M8.9,35.3v.2l-.6.4c-.5.2-1,.2-1.3.6s-.2-.1-.3-.1.3-.5.6-.6A4.4,4.4,0,0,0,8.9,35.3Z" transform="translate(-6.7 -22.5)"/><path class="cls-1" d="M62.9,29.3H63c.1.3-.2.7.1,1.1s-.3,1.2-.9,1.5-.2-.1-.2.1h-.3A3.5,3.5,0,0,0,62.9,30Z" transform="translate(-6.7 -22.5)"/><path class="cls-1" d="M38.6,32.2c-.1,0-.1,0-.1-.1s-.2,0-.2.1a1.7,1.7,0,0,1-.1,1v-2c.1-.3,0-.4-.3-.4s.3-.1.5-.1h.2Z" transform="translate(-6.7 -22.5)"/><path class="cls-1" d="M38.4,30.7c-.2,0-.4-.1-.5.1a2.3,2.3,0,0,1-1.8,0h.1a5.5,5.5,0,0,0,1.8-.2h.4Z" transform="translate(-6.7 -22.5)"/><path class="cls-1" d="M35.6,29.7l.2-.3c.5-.2.9.1,1.4,0s-.8.5-1.3.5Z" transform="translate(-6.7 -22.5)"/><path class="cls-1" d="M48.1,29.3h-.3c-.5-.5-1.2-.3-1.8-.4h0A2.3,2.3,0,0,1,48.1,29.3Z" transform="translate(-6.7 -22.5)"/><path class="cls-1" d="M63.7,27.1l-1.9-.2A1.4,1.4,0,0,1,63.7,27.1Z" transform="translate(-6.7 -22.5)"/><path class="cls-1" d="M53.7,33.5h-.4c.1-.6.1-1.2.2-1.9s0,.6.1.9a2.8,2.8,0,0,1,.1.9Z" transform="translate(-6.7 -22.5)"/><path class="cls-1" d="M25.8,23.8a6.7,6.7,0,0,0-1.8-.7A1.4,1.4,0,0,1,25.8,23.8Z" transform="translate(-6.7 -22.5)"/><path class="cls-1" d="M18.4,30.1v.2c-.3-.1-.3-.3-.3-.5s-.3-.1-.4-.1l-.2-.2a3.4,3.4,0,0,0,.3-.8A2.8,2.8,0,0,1,18.4,30.1Z" transform="translate(-6.7 -22.5)"/><path class="cls-1" d="M37.2,29.4c-.5.1-.9-.2-1.4,0s1.3-.2,1.9-.4-.1.3-.1.4h-.4Z" transform="translate(-6.7 -22.5)"/><path class="cls-1" d="M13.1,31.3V31c.1-.4.2-.8.8-.8v.2l-.3.5C13.4,30.9,13.3,31.2,13.1,31.3Z" transform="translate(-6.7 -22.5)"/><path class="cls-1" d="M26.4,24.7h.3a6.1,6.1,0,0,1,0,1.9h-.3V24.7Z" transform="translate(-6.7 -22.5)"/><path class="cls-1" d="M37.6,29.4c0-.1.1-.3.1-.4h1.6v.3Z" transform="translate(-6.7 -22.5)"/><path class="cls-1" d="M10.8,34.2V34l.5-1c.1.3.3.3.5.2A2.8,2.8,0,0,1,10.8,34.2Z" transform="translate(-6.7 -22.5)"/><path class="cls-1" d="M35.6,29.7l.3.2c-.1.3.5.4.3.8h-.1c-.4-.1-.3-.6-.6-.7h0C35.7,30,35.6,29.8,35.6,29.7Z" transform="translate(-6.7 -22.5)"/><path class="cls-1" d="M50.4,32.8c0,.6-.3,1.2-.1,1.8v.2c-.5-.5-.1-1.1-.1-1.6v-.3Z" transform="translate(-6.7 -22.5)"/><path class="cls-1" d="M50.4,32.8h-.3a3.1,3.1,0,0,1,.3-1.3c.1-.4.2-.2.3,0l-.2.3Z" transform="translate(-6.7 -22.5)"/><path class="cls-1" d="M39.3,29.3V29a2.3,2.3,0,0,1,1.4.2C40.2,29.4,39.8,29.2,39.3,29.3Z" transform="translate(-6.7 -22.5)"/><path class="cls-1" d="M50.5,31.9l.2-.3c.1.4.7.6.6,1.2h-.1A3,3,0,0,0,50.5,31.9Z" transform="translate(-6.7 -22.5)"/><path class="cls-1" d="M52.2,31.8,52,32l-.8-1h.2C51.8,31.1,51.9,31.5,52.2,31.8Z" transform="translate(-6.7 -22.5)"/><path class="cls-1" d="M24,30.9c0-.2-.1-.2-.3-.2s.2-.2.2-.3h.5C24.4,30.7,24.5,31,24,30.9Z" transform="translate(-6.7 -22.5)"/><path class="cls-1" d="M26.8,31.5a3.7,3.7,0,0,1,0-2.1Z" transform="translate(-6.7 -22.5)"/><path class="cls-1" d="M29.5,29.4v-.3h.4v.3C29.7,29.6,29.6,29.4,29.5,29.4Z" transform="translate(-6.7 -22.5)"/><path class="cls-1" d="M38.2,33.5c-.1.3.1.7-.1,1.1S37.9,33.8,38.2,33.5Z" transform="translate(-6.7 -22.5)"/><path class="cls-1" d="M26.5,26.5h.2c0,.1.2.2.1.4h-.2Z" transform="translate(-6.7 -22.5)"/><path class="cls-1" d="M43.1,30.2c.1.1.3.1.1.3S42.8,30.5,43.1,30.2Z" transform="translate(-6.7 -22.5)"/><path class="cls-1" d="M30.9,29.2a.5.5,0,0,1-.5,0Z" transform="translate(-6.7 -22.5)"/><path class="cls-1" d="M26.8,27.3v-.4A.3.3,0,0,1,26.8,27.3Z" transform="translate(-6.7 -22.5)"/><path class="cls-1" d="M26.8,29.3a.2.2,0,0,1,0-.3C26.8,29.1,26.9,29.2,26.8,29.3Z" transform="translate(-6.7 -22.5)"/><path class="cls-1" d="M26.8,28.7v-.4A.3.3,0,0,1,26.8,28.7Z" transform="translate(-6.7 -22.5)"/><path class="cls-1" d="M26.8,28.2v-.5A.5.5,0,0,1,26.8,28.2Z" transform="translate(-6.7 -22.5)"/><path class="cls-1" d="M44.5,31.8a.2.2,0,0,1,0,.4Z" transform="translate(-6.7 -22.5)"/><path class="cls-1" d="M6.8,36.5v.2C6.6,36.6,6.7,36.5,6.8,36.5Z" transform="translate(-6.7 -22.5)"/><path class="cls-1" d="M26,23.8h0Z" transform="translate(-6.7 -22.5)"/><path class="cls-1" d="M22.6,31c-.2.6-.8.9-1.3,1.3a1.4,1.4,0,0,1-1.5.7,1.2,1.2,0,0,1-.8-1c0-.2.1-.5.1-.7s.7-.5,1.2-.4a.5.5,0,0,0,.6,0c.2-.2-.2-.4-.3-.7l.5.2c.1.2.1.6.2.5S22.2,31,22.6,31Z" transform="translate(-6.7 -22.5)"/><path class="cls-1" d="M15.7,27l.5-1.1a5.4,5.4,0,0,0,1.8,0c.5,0,1.2-.2,1.7.3v.5C18.4,26.8,17,26.8,15.7,27Z" transform="translate(-6.7 -22.5)"/><path class="cls-1" d="M26.4,24.7v1.1c-.5-.6-1.1-.3-1.7-.2h-.1c-.1-.3-.1-.7-.2-1.1a7.6,7.6,0,0,1,1.5-.1C26.1,24.4,26.4,24.3,26.4,24.7Z" transform="translate(-6.7 -22.5)"/><path class="cls-1" d="M13.6,30.9l.3-.5a3.1,3.1,0,0,0,1.9,0,.8.8,0,0,1,1,.2.5.5,0,0,1-.4.6,4.9,4.9,0,0,0-1.7.1C14.4,31.3,13.9,31.4,13.6,30.9Z" transform="translate(-6.7 -22.5)"/><path class="cls-1" d="M22.6,31c-.4,0-.8-.4-1.3-.1s-.1-.3-.2-.5,1.3-.1,1.8-.7.2.2.3.3A1.5,1.5,0,0,1,22.6,31Z" transform="translate(-6.7 -22.5)"/><path class="cls-1" d="M20.6,30.2c.1.3.5.5.3.7a.5.5,0,0,1-.6,0c-.5-.1-.8.3-1.2.4s-.2-.4-.1-.7l.2-.2C19.7,30.5,20.1,30,20.6,30.2Z" transform="translate(-6.7 -22.5)"/><path class="cls-1" d="M24.7,25.6c.6-.1,1.2-.4,1.7.2v.7H26c-.1-.5-.5-.2-.7-.3Z" transform="translate(-6.7 -22.5)"/><path class="cls-1" d="M23.4,25.9h.3c.3.3.9,0,1,.6s.4.3.1.5a.4.4,0,0,1-.6-.3c-.1-.4-.3-.1-.5-.1Z" transform="translate(-6.7 -22.5)"/><path class="cls-1" d="M23.4,25.9l.3.7c-.2.2-.4,0-.7,0a1.5,1.5,0,0,0,.1-.7Z" transform="translate(-6.7 -22.5)"/><path class="cls-1" d="M25.3,26.2c.2.1.6-.2.7.3h0l-.2.2C25.5,26.7,25.1,26.8,25.3,26.2Z" transform="translate(-6.7 -22.5)"/><path class="cls-1" d="M24.4,24.5c.1.4.1.8.2,1.1h-.1c-.1-.2-.1-.5-.3-.5s-.3-.3-.3-.5S24.3,24.7,24.4,24.5Z" transform="translate(-6.7 -22.5)"/><path class="cls-1" d="M23.4,29.4v.2c-.1,0-.1-.1-.1-.2h.1Z" transform="translate(-6.7 -22.5)"/><path class="cls-1" d="M25.8,26.7l.2-.2A.2.2,0,0,1,25.8,26.7Z" transform="translate(-6.7 -22.5)"/><path class="cls-1" d="M22.9,26.9a.4.4,0,0,1,.1-.3A.4.4,0,0,1,22.9,26.9Z" transform="translate(-6.7 -22.5)"/><path class="cls-1" d="M63.1,33.2l-.9.9c-.1.2-.5.3-.4.5s.4.2.6.1a24.8,24.8,0,0,0,2.7.3c.2,0,.5.4.7,0h.4c.2.1.1.7.6.3s.5.4,0,.6a6,6,0,0,1-2.7.6,11.1,11.1,0,0,1-1.9.2,7.5,7.5,0,0,0-2.1-.2h-.2a3.1,3.1,0,0,1-2.5-.2c-.5-.2-.3-.4-.2-.6s.2-.3.4-.4a21.2,21.2,0,0,0,3.5-2.3c.3.3.5.1.7.1S62.8,32.5,63.1,33.2Z" transform="translate(-6.7 -22.5)"/><path class="cls-1" d="M63.1,33.2c-.3-.7-.8-.2-1.3-.2s-.4.2-.7-.1.8-.4,1-.9h.1c.6-.3.7-1,.9-1.5v-.3c.1-.9.8-.6,1.3-.8h.7a3.2,3.2,0,0,1-1.4,3.4Z" transform="translate(-6.7 -22.5)"/><path class="cls-1" d="M65.8,35c-.2.4-.5,0-.7,0S65.7,34.7,65.8,35Z" transform="translate(-6.7 -22.5)"/><path class="cls-1" d="M66.8,35.3c-.5.4-.4-.2-.6-.3S66.7,35,66.8,35.3Z" transform="translate(-6.7 -22.5)"/><path class="cls-1" d="M60.1,29.7l-.4.7c-.1.2-.3.1-.4.1s-.5-.3-.6.2-.2-.4-.2-.7A2.2,2.2,0,0,1,60.1,29.7Z" transform="translate(-6.7 -22.5)"/><path class="cls-1" d="M63.2,30.1v.3c-.3-.4,0-.8-.1-1.1S63.1,29.8,63.2,30.1Z" transform="translate(-6.7 -22.5)"/><path class="cls-1" d="M19.7,26.2c-.5-.5-1.2-.3-1.7-.3a5.4,5.4,0,0,1-1.8,0,3.3,3.3,0,0,1,0-1,2.2,2.2,0,0,0,1.6.1,5,5,0,0,1,1.7-.2C20,25.2,19.7,25.7,19.7,26.2Z" transform="translate(-6.7 -22.5)"/><path class="cls-1" d="M13.6,30.9c.3.5.8.4,1.1.4a4.9,4.9,0,0,1,1.7-.1,1.9,1.9,0,0,1-.8,1.6A17.7,17.7,0,0,0,14,35a4.2,4.2,0,0,1-4.7,2,4,4,0,0,0-1.1,0,1.4,1.4,0,0,1-1.1-.5c.3-.4.8-.4,1.3-.6l.6-.4c.4-.4,1.1-.5,1.3-1s.4-.1.5-.3a2.8,2.8,0,0,0,.9-1c.3-.2.5-.3.4-.8s.5-.5.7-.9.3.1.3-.1h0C13.3,31.2,13.4,30.9,13.6,30.9Zm.9,1.7c.3.1.6,0,.6-.3s0-.2-.1-.2a.5.5,0,0,0-.5.5c-.1.1-.2,0-.2.1Z" transform="translate(-6.7 -22.5)"/><path class="cls-1" d="M43.1,35c1.5.1,1.6.1,1.6-1.7.3-.1.5-.1.5-.5s0-.3.2-.3h.1c0,.3-.2.7.1.9h0a.2.2,0,0,0,0,.3,1.7,1.7,0,0,0,.1.7h-.5l.5.2h.2c.2.4.5.4.7,0h.3c.2.1.7.3.5.7s-.5.6-1,.4a4.5,4.5,0,0,0-2,.1C43.4,36.2,43.1,36,43.1,35Z" transform="translate(-6.7 -22.5)"/><path class="cls-1" d="M50.1,33.2c0,.5-.4,1.1.1,1.6a2.8,2.8,0,0,0-.1.9c-.1.8-.7.8-1.2.8s-.9-.1-.9-.7a.6.6,0,0,0,.6-.6c-.1-.8.2-1.5.1-2.3S49.6,33.1,50.1,33.2Z" transform="translate(-6.7 -22.5)"/><path class="cls-1" d="M48.7,32.9c.1.8-.2,1.5-.1,2.3a.6.6,0,0,1-.6.6v-.3c.1-.1.3-.1.3-.3s.1-2.7.1-4.1.1-.6.1-1h.3c0,.4-.2.7,0,1A10.9,10.9,0,0,0,48.7,32.9Z" transform="translate(-6.7 -22.5)"/><path class="cls-1" d="M45.5,32.6h0c.3-.1.2-.3.2-.5V30.8h.4a7.8,7.8,0,0,0-.2,2.6h-.2A1,1,0,0,0,45.5,32.6Z" transform="translate(-6.7 -22.5)"/><path class="cls-1" d="M45.5,32.6a1,1,0,0,1,.2.7c0,.1,0,.1-.1.2S45.5,32.9,45.5,32.6Z" transform="translate(-6.7 -22.5)"/><path class="cls-1" d="M45.9,34.9h-.2v-.2c.3.1.7-.1,1.1.2h-1Z" transform="translate(-6.7 -22.5)"/><path class="cls-1" d="M45.8,34.7v.2l-.5-.2h.5C45.7,34.7,45.7,34.7,45.8,34.7Z" transform="translate(-6.7 -22.5)"/><path class="cls-1" d="M45.6,33.9a.2.2,0,0,1,0-.3Z" transform="translate(-6.7 -22.5)"/><path class="cls-1" d="M30.9,34.9H31a9.7,9.7,0,0,1,2.4-.2c.3,0,.7.3,1-.1h.5c.4,0,.5.3.5.6a.6.6,0,0,1-.4.7,1,1,0,0,1-.9,0,9.5,9.5,0,0,0-4.4.4.9.9,0,0,1-1.2-.7c0-.3.5-.4.4-.8s.9-.8.5-1.4-.3-.3-.1-.5H30a1.7,1.7,0,0,1,1.2.2Q30.3,33.9,30.9,34.9Z" transform="translate(-6.7 -22.5)"/><path class="cls-1" d="M24,30.9c.5.1.4-.2.4-.5h.3c.4.2.8,0,1.3,0l.4.3c0,.4.1.8.1,1.2a10.7,10.7,0,0,0,.6,3c.1.4.1.9.2,1.4a3,3,0,0,1-2.6.6c0-.1-.1-.1-.1,0s-1,0-1.1-1a8.6,8.6,0,0,0,.5-2.7c.4,0,.3.5.6.5s.2-.7.4-.7,1-.2,1.1-1l-.8.6-.4-.9a1.1,1.1,0,0,1-.5.8c0-.3.1-.5,0-.7s-.2-.1-.3,0S23.9,31.2,24,30.9Zm2.4,3.8c-.2.5.3.4.4.6s-.3-.4-.4-.6.2,0,.2-.1h0C26.4,34.5,26.4,34.6,26.4,34.7Zm-2.3,0c.4.3.7.6,1.2.4a.3.3,0,0,0,.3-.3.5.5,0,0,0-.3-.5c-.1,0-.4-.2-.4-.1S24.4,34.6,24.1,34.7Z" transform="translate(-6.7 -22.5)"/><path class="cls-1" d="M24.7,30.4h-.3c0-.1.1-.3.2-.3S24.7,30.3,24.7,30.4Z" transform="translate(-6.7 -22.5)"/><path class="cls-1" d="M36.2,30.7c.2-.4-.4-.5-.3-.8s1,.2,1.3-.5h.3c0,.4.1.5.5.4a4.4,4.4,0,0,1,1.6.2c-.3.5-.8.4-1.2.4H38A5.5,5.5,0,0,1,36.2,30.7Z" transform="translate(-6.7 -22.5)"/><path class="cls-1" d="M40.7,30.5h-.4c-.3-.1-.6-.2-.6-.5s.4-.3.6-.2,1.4-.1,2,.1.1-.1.2-.2-.2.8-.7.8H40.7Z" transform="translate(-6.7 -22.5)"/><path class="cls-1" d="M39.7,30c0,.3.3.4.6.5h-.5c-.1.1-.2.1-.1.2H38.4v-.2c.4,0,.9.1,1.2-.4Z" transform="translate(-6.7 -22.5)"/><path class="cls-1" d="M48.3,29.4A1.8,1.8,0,0,1,47,30.5c0-.2.3-.3.3-.5l.5-.5h.5Z" transform="translate(-6.7 -22.5)"/><path class="cls-1" d="M45.5,32.4h-.1c-.2,0-.2.2-.2.3s-.2.4-.5.5a19.3,19.3,0,0,0,.1-2.4h.9v1.1C45.4,32,45.4,32.1,45.5,32.4Z" transform="translate(-6.7 -22.5)"/><path class="cls-1" d="M46.1,30.7h-.2c-.1-.3,0-.4.2-.5s.6-.1.7.3A1,1,0,0,0,46.1,30.7Z" transform="translate(-6.7 -22.5)"/><path class="cls-1" d="M44.7,30.5h-.3C44.4,30.4,44.6,30.4,44.7,30.5Z" transform="translate(-6.7 -22.5)"/><path class="cls-1" d="M44.9,30.8h-.1v-.4h.1Z" transform="translate(-6.7 -22.5)"/><path class="cls-1" d="M44.9,30.5Z" transform="translate(-6.7 -22.5)"/><path class="cls-1" d="M29.2,30.4c-.1-.2.1-.4-.2-.5,1.8-.1,3.6.1,5.4-.1.2,0,.3.1.4.3s0,.5-.4.5a9.3,9.3,0,0,0-2.9.1h-.6a.9.9,0,0,0-1.3-.1Z" transform="translate(-6.7 -22.5)"/><path class="cls-1" d="M30.9,30.7h.6l-.5,1c-.1.3-.1.5.3.5l3-.2c-.1.1.3.3-.1.4a3,3,0,0,0-2.1.1h-.3c-.1.1-.1.2-.1.4H29.6a5.5,5.5,0,0,0,.6-1.8l-.2-.2h.8C31,31,30.9,30.8,30.9,30.7Z" transform="translate(-6.7 -22.5)"/><path class="cls-1" d="M34.8,30.1c-.1-.2-.2-.3-.4-.3-1.8.2-3.6,0-5.4.1-.1-.4.2-.5.5-.5s.2.2.4,0H35C35,29.6,35.3,30,34.8,30.1Z" transform="translate(-6.7 -22.5)"/><path class="cls-1" d="M31.8,32.4h.3a3,3,0,0,1,2.1-.1c0,.5-.1.7-.7.6l-1.5.2c-.3-.1.6-.1,0-.3S31.9,32.6,31.8,32.4Z" transform="translate(-6.7 -22.5)"/><path class="cls-1" d="M29.6,32.8h2.1v.4c-.1.2-.3.1-.4.2a1.7,1.7,0,0,0-1.2-.2h-.7Z" transform="translate(-6.7 -22.5)"/><path class="cls-1" d="M31.6,33.2v-.4c0-.2,0-.3.1-.4s-.1.4.2.5-.3.2,0,.3Z" transform="translate(-6.7 -22.5)"/><path class="cls-1" d="M38.3,35.7V34.6c.2-.1.1-.3.1-.4v-.6h.2c.3-.4.7-.3,1.1-.3s-.2.6,0,.8a4.2,4.2,0,0,1-.1,1.6c-.1.3-.1.6-.5.6S38.4,36.2,38.3,35.7Z" transform="translate(-6.7 -22.5)"/><path class="cls-1" d="M39.7,33.2c-.4,0-.8-.1-1.1.3V30.8h1.1A19.2,19.2,0,0,0,39.7,33.2Z" transform="translate(-6.7 -22.5)"/><path class="cls-1" d="M39.7,30.7c-.1-.1,0-.1.1-.2Z" transform="translate(-6.7 -22.5)"/><polygon class="cls-1" points="34.1 7.9 34.1 7.9 34.2 7.9 34.1 8 34.1 7.9"/><path class="cls-1" d="M53.7,33.3a2.8,2.8,0,0,0-.1-.9h.1l.2-.3c.1-1.2.1-1.2,1.4-1.1h.1c-.4.7-.2,1.4-.3,2.2S54.1,33,53.7,33.3Z" transform="translate(-6.7 -22.5)"/><path class="cls-1" d="M55.7,30l-.2.7a3.7,3.7,0,0,0-1.8.1V30A6,6,0,0,1,55.7,30Z" transform="translate(-6.7 -22.5)"/><path class="cls-1" d="M53.7,30.8a3.7,3.7,0,0,1,1.8-.1.4.4,0,0,1-.1.3h-.1c-1.3-.1-1.3-.1-1.4,1.1l-.2.3Z" transform="translate(-6.7 -22.5)"/><path class="cls-1" d="M30.9,30.7c0,.1.1.3-.1.2H30c-.2,0-.4.1-.4-.2A.9.9,0,0,1,30.9,30.7Z" transform="translate(-6.7 -22.5)"/><path class="cls-1" d="M48.7,32.9a10.9,10.9,0,0,1,.1-1.8,9.7,9.7,0,0,1,2.4-.1l.8,1c0,.4.5.4.6.8s-.8-.3-1.2,0h-.1c.1-.6-.5-.8-.6-1.2s-.2-.4-.3,0a3.1,3.1,0,0,0-.3,1.3v.3C49.6,33.1,49.1,33.4,48.7,32.9Z" transform="translate(-6.7 -22.5)"/><path class="cls-1" d="M49.1,30c.5-.2,1-.6,1.4.1H49.4C49.2,30.3,49.1,30.1,49.1,30Z" transform="translate(-6.7 -22.5)"/><path class="cls-1" d="M50.5,30.1h.1v0Z" transform="translate(-6.7 -22.5)"/><path class="cls-1" d="M53.7,33.3c.4-.3.9,0,1.4-.1a1.3,1.3,0,0,0,.1.6c-.3.4.1.7.2,1s.2.7.1,1-.3.7-.7.7-.8-.2-1.1-.6l-.6-1.1c.1-.6-.6-.8-.8-1.3s.3-.3.5-.3H53l.2.5h0c.5.2.5.2.5-.4Z" transform="translate(-6.7 -22.5)"/><path class="cls-1" d="M24.1,31.8c.1-.1.2-.4.3,0s0,.4,0,.7a1.1,1.1,0,0,0,.5-.8l.4.9.8-.6c-.1.8-.4,1.1-1.1,1s-.2,0-.4.7-.2-.5-.6-.5S24.1,32.3,24.1,31.8Zm.7.8h0Z" transform="translate(-6.7 -22.5)"/><path class="cls-1" d="M13.1,31.4c0,.2-.1.3-.3.1Z" transform="translate(-6.7 -22.5)"/><path class="cls-1" d="M38.4,34.2c0,.1.1.3-.1.4A.6.6,0,0,1,38.4,34.2Z" transform="translate(-6.7 -22.5)"/><path class="cls-1" d="M38.5,33.3v.2h-.2A.4.4,0,0,0,38.5,33.3Z" transform="translate(-6.7 -22.5)"/><path class="cls-1" d="M38.5,32.5v0Z" transform="translate(-6.7 -22.5)"/><path class="cls-1" d="M52.8,33.2c-.2,0-.5,0-.5.3l-.9-.7c.4-.3.8,0,1.2,0S52.8,33,52.8,33.2Z" transform="translate(-6.7 -22.5)"/><path class="cls-1" d="M53.2,33.9h0Z" transform="translate(-6.7 -22.5)"/><path class="cls-1" d="M53,33.3h0Z" transform="translate(-6.7 -22.5)"/><path class="cls-1" d="M62.2,31.9H62C62,31.8,62.1,31.8,62.2,31.9Z" transform="translate(-6.7 -22.5)"/><path class="cls-1" d="M38.4,30.4v.2h0Z" transform="translate(-6.7 -22.5)"/><path class="cls-1" d="M14.5,32.6a.5.5,0,0,1,.5-.5c.1,0,.1.1.1.2s-.3.4-.6.3Z" transform="translate(-6.7 -22.5)"/><path class="cls-1" d="M14.5,32.6h-.2c0-.1.1,0,.2-.1Z" transform="translate(-6.7 -22.5)"/><path class="cls-1" d="M45.9,34.9h.7C46.4,35.3,46.1,35.3,45.9,34.9Z" transform="translate(-6.7 -22.5)"/><path class="cls-1" d="M45.5,32.4c-.1-.3-.1-.4.2-.5S45.8,32.3,45.5,32.4Z" transform="translate(-6.7 -22.5)"/><path class="cls-1" d="M24.1,34.7c.3-.1.7,0,.8-.5s.3.1.4.1a.5.5,0,0,1,.3.5.3.3,0,0,1-.3.3C24.8,35.3,24.5,35,24.1,34.7Z" transform="translate(-6.7 -22.5)"/><path class="cls-1" d="M26.4,34.7c.1.2.5.2.4.6s-.6-.1-.4-.6Z" transform="translate(-6.7 -22.5)"/><path class="cls-1" d="M26.4,34.7c0-.1,0-.2.2-.2h0c0,.1-.1.1-.2.1Z" transform="translate(-6.7 -22.5)"/><path class="cls-1" d="M24.8,32.6Z" transform="translate(-6.7 -22.5)"/></svg>