<svg id="Layer_1" data-name="Layer 1" xmlns="http://www.w3.org/2000/svg" viewBox="0 0 60.4 45.2"><defs><style>.cls-1{fill:#fff;}</style></defs><polygon class="cls-1" points="60 6.9 60 6.9 60 6.9 60 6.9"/><path class="cls-1" d="M68.2,33.6c0-.1-.1-.2,0-.3h-.1c-.1-.1,0-.1,0-.1s-.1-.1-.2-.2h-.1c0-.1,0-.1-.1-.2s.2,0,.2-.1h-.1c-.1.1-.2,0-.3,0s-.2-.1-.3,0h-.4c0,.1-.1.1-.2.1s-.2-.1-.2,0h-.8a.2.2,0,0,1-.2-.2c0-.1-.1-.2,0-.3h0v-.4c0-.1,0-.1.1-.1s.1-.1,0-.1h0c0-.1,0-.2-.1-.2v-.6h.2a.4.4,0,0,1-.2-.4v-.7c.1-.1,0-.3,0-.4v-.2h0c0-.1.1-.3,0-.4s.1-.4,0-.6h0v-.4h0v-1h0c0-.2.1-.4,0-.6V24.2h0a.4.4,0,0,1,.1-.3h0c-.1-.2,0-.5-.1-.7s0-.2-.1-.2v-.6h0a.6.6,0,0,0,0-.6v-.2h0v-.6a.2.2,0,0,1,0-.3.7.7,0,0,0,.1-.5v-.4h-.1a.2.2,0,0,1-.2.2h0c.1,0,.1-.1.1-.2a.1.1,0,0,1,0-.2h.1c-.1-.1,0-.2,0-.3s0-.2-.1-.2h-.1a.1.1,0,0,1,.1-.1h0c-.1-.1,0-.2,0-.4v-.6h2.2a.2.2,0,0,1,.3,0,.1.1,0,0,0,.1-.1h0l.2-.2h0c.1,0,.1-.1.1-.2s-.1-.1,0-.1,0-.3-.1-.4V14.4l-.2.2h-.1c-.1-.1-.1-.1,0-.2a.1.1,0,0,1-.1-.1c0-.2,0-.2-.1-.3h-.1v-.2h-1c-.1-.1-.1,0-.1,0H66a.7.7,0,0,1-.6-.1h-.1c0-.2-.1-.4,0-.5h0v-.8c0-.1-.1-.2,0-.3V12h0c-.1,0-.1-.1-.1-.2v-.9c0-.1-.1-.1,0-.2v-.3c-.1,0,0-.1,0-.1V9.7a1.3,1.3,0,0,1-.1-.6H65a.1.1,0,0,1,0-.2h0l-.3-.4L64.4,8l-.3-.2H62.4a.1.1,0,0,1-.1.1V7.7h-.4c-.2.1-.3,0-.4,0H46.9c-.1,0-.1,0-.1.2h0a.1.1,0,0,0,0,.2h-.1c0-.1-.1-.2,0-.2V7.6H34.9c-.2-.1-.2-.1-.2.1h.2v.2h-.4c-.1,0-.2,0-.2-.1H29V7.7h.2V7.6H17.1l-.5-.2H11.5a.1.1,0,0,0-.2,0,.5.5,0,0,0-.4.3l-.2.2-.2.3c0,.1-.1.1,0,.3h0v.5c-.1,0-.1.1,0,.2v.2a.1.1,0,0,0-.1.1l.2.4h-.1a.4.4,0,0,1-.1.3.1.1,0,0,0,.1.1h0c0,.1.1.3,0,.4s0,.1,0,.2v1.3c0,.2-.1.3-.1.4s0,.4.1.6-.1.3-.2.3H9.8c-.1-.1-.1-.2-.2-.1H9.4c-.1,0-.1.1,0,.2H8.8c-.1,0-.2,0-.2-.2V14H8.3v.2a.1.1,0,0,1-.1.1c.1,0,.1.1,0,.2H8.1l-.2-.2h0v1.1h0c.1.2,0,.3-.1.4v.2h0c.1.1.1.2,0,.2v.2h.1c.1.1.2.1.2.2h0c0-.1,0-.1.1-.1h0c0,.1,0,.1.1.1H8.1c0,.1,0,.1.1.1s.3,0,.4,0h1.8c.1,0,.1.1.1.2v.3a.1.1,0,0,1,0,.2v.7h0v.3c0,.1.1.1,0,.2v.9c0,.1.1.2,0,.3h0V21a.2.2,0,0,0,0,.3v.3s-.1.1,0,.1v.6c.1.1.1.1,0,.2h0a.6.6,0,0,1,.1.4v.2a.9.9,0,0,1-.1.5v.2a.9.9,0,0,1-.1.5v.5a.6.6,0,0,1,0,.6v.4a1.9,1.9,0,0,1,.1.8v.2c.1.1,0,.2.1.3h-.1v.3h0a.4.4,0,0,0-.1.3c.1.1.1.2.1.4a1.3,1.3,0,0,1-.1.6h0c.1.2,0,.5,0,.8a2.7,2.7,0,0,1,0,.9.9.9,0,0,1,.1.5v.8h0c-.1.1-.1.1,0,.2s0,.1-.1.1H9.3s0,.1-.1,0H9c-.1.1-.2,0-.3,0H8.5c.1.1,0,.1,0,.1H8.2c0,.1,0,.1-.1.2H8c-.1.2-.2.3-.1.5s.1.1,0,.2v.2h0v.6c.1.1,0,.2,0,.3s-.1.3,0,.4h0v.2c0,.1.1.3.2.3h0c0,.1-.1.1,0,.1h.2a.1.1,0,0,1,.1.1h.8a.2.2,0,0,0,.3,0h.8c.1,0,.1-.1.1,0s.2,0,.1.1v.5a.4.4,0,0,1,0,.5v.4c-.1,0-.1.1,0,.2h-.1a.4.4,0,0,0,.1.3v.2c0,.1-.1.2,0,.3s-.1.1-.1.2-.1.2,0,.3a.6.6,0,0,0,.1.4.1.1,0,0,1-.1.1h0c-.1.2-.1.2.1.2h-.1s-.1.1,0,.1v.4c.1.1,0,.2.1.4h0c.1.1.1.2.2.2v.2h.1l.3.2.2.2h.8a2.1,2.1,0,0,1,.8,0h3.7c.2,0,.4.1.6,0H18c.1,0,.2.1.3,0h2.6c.2.1.4,0,.5,0a.2.2,0,0,1,.3,0h.9c.1,0,.2-.1.3,0h1.2a.1.1,0,0,0,.1-.1h.1c0,.1,0,.1.1.1h.4c.1,0,.2-.1.3,0s.1,0,.2,0H27c.1.1.1,0,.2,0h.1s.1.1.1,0h.5c.2.1.3,0,.4,0h1.3a.5.5,0,0,1,.4-.2h.3c-.1,0-.1,0,0,.1h0c.1,0,.1,0,0-.1h.3c0,.1,0,.1.1,0H31c0-.2.1-.1.1-.1H32v-.5a.1.1,0,0,0,.1-.1c0,.1.1.1.1.2h.2a.1.1,0,0,1,0,.2h0c0,.1.1.1.1,0h.1c-.1,0-.1.1-.1.2H40c.2.1.5,0,.7,0h2.6a.1.1,0,0,1,.1-.1c.2.1.4,0,.6,0h3.6c0-.1,0-.1-.1-.2a.1.1,0,0,1-.1-.1h.4c.1-.1.1.1.2,0s-.1.1-.1.2h-.2v.2h2.1c.1.1.2,0,.3,0h.1c.2.1.3-.1.5,0h5.7c.3,0,.5.1.7,0h.3c.1.1.2,0,.3,0h.4c.1.1.3,0,.5,0h5.8c.2-.1.4-.1.5-.3h.2a.1.1,0,0,1,.1-.1c0-.1.1-.2.1-.3a1.1,1.1,0,0,0,.2-.6.4.4,0,0,1,.1-.3v-.2c-.1,0-.1-.1,0-.1V38.7h0c0-.3-.1-.5,0-.7s0-.1-.1-.1h.1c0-.1-.1-.2,0-.3h0a.2.2,0,0,1,0-.3c0-.1,0-.2-.1-.2h0V36a.1.1,0,0,1,.1-.1c.2-.1.3,0,.5,0a.1.1,0,0,0,.1.1h.1s0,.2.1.1a.1.1,0,0,1,.2,0c.1-.1.1-.1.1-.2H67c.1-.1.2-.1.2,0h.1a.1.1,0,0,1,.1.1c.1,0,0-.1,0-.2h.1c.1.1.1.1.2,0a.8.8,0,0,1,.1-.4h.1c.1,0,.1.1.2.2s0-.3,0-.4v-.7h0c0-.1.1-.1,0-.2v-.2A.4.4,0,0,0,68.2,33.6ZM10.8,17.4c.1,0,0,.1,0,.1a.1.1,0,0,1-.1-.1Zm0,1.2h-.1c.1-.1.1-.1,0-.2h0a.4.4,0,0,0,.1-.3h0C10.8,18.2,10.9,18.4,10.8,18.6Zm0,.4h-.1c.1-.1,0-.1.1-.2Zm-.2,6.9h0s.1.1,0,.1h0Zm.1.2v.2h-.1C10.6,26.2,10.6,26.2,10.7,26.1Zm-.1,1.5h.1s.1,0,0,.1Zm.2,1.5h-.1A.1.1,0,0,1,10.8,29.1Zm0-9.2h0v.2a.4.4,0,0,1-.1-.3c0-.2.1-.3.1-.5h0v.2h0a.2.2,0,0,0,0,.3Zm.1-2.2h0c.1,0,0-.1,0-.1h.2C11.1,17.6,11,17.6,10.9,17.7ZM11.8,38h-.1c0-.1-.1,0-.2,0h0c-.1-.1,0-.1,0-.1a.1.1,0,0,1,.2,0h.1a.2.2,0,0,1,.2.2ZM62.1,22.2H62a.4.4,0,0,1,.1-.3Zm-.1-.3ZM60.1,10.8h.3c-.2,0-.3-.1-.3-.2ZM57.8,7.6h.1s0,.1-.1,0Zm-.3,0h.1c.1,0,.1,0,.1.1h-.2Zm-1.2,0a.1.1,0,0,1,.1.1h-.1c-.1-.1,0-.1,0-.1S56.2,7.6,56.3,7.6Zm-1.3,3h0Zm-.3-2.9h0Zm-4.2,0h0Zm0,.4h0Zm-.4-.4h0Zm-.3.2h0Zm-.4,2.8h0c.1.1.2,0,.3,0H50a.1.1,0,0,1-.1.1c-.1,0-.2-.1-.3,0s-.1,0-.2,0-.1-.1-.1,0a.1.1,0,0,1-.1-.1Zm-.5.1h-.1c0-.1-.1,0-.2-.1Zm-.4,0h-.2s-.1-.1-.1,0h-.1c-.1-.1-.2,0-.3,0A.8.8,0,0,1,48.5,10.8Zm-1.8-.3h.6c.1-.1.2,0,.2.1h-.8Zm.6.3h-.5c.1,0,.2.1.2,0h.3C47.4,10.7,47.4,10.8,47.3,10.8Zm-1.1-.1h.2c-.1,0-.1.2-.2.2h-.1C46.1,10.7,46.1,10.7,46.2,10.7ZM45,7.7h0c0-.1.1-.1.1,0H45Zm-.4.2h.3v.2h-.2Zm-.2,0h0Zm-2.8,2.4h0Zm-1.6,0ZM34.7,8h0C34.6,8,34.6,8,34.7,8Zm-5-.1h0Zm-.3.2h0Zm-.4.2a.1.1,0,0,0,.1-.1h.2a.3.3,0,0,0-.1.2H29C28.9,8.4,28.9,8.3,29,8.3Zm-.3-.5c0-.1.1,0,.1.1h-.2A.1.1,0,0,1,28.7,7.8Zm0,.8V8.4h.1Zm-1.1-.8h.6c.2,0,.3,0,.3.2h0c-.1-.1-.1-.1-.2,0h-.7Zm-.4-.1h0c-.1.1-.1,0-.2,0Zm-.7,0c.1-.1.1,0,.2,0h-.2Zm-3,3h.1a.1.1,0,1,1-.2,0Zm-.3-3h0Zm-1.3,3.1c0-.1,0-.1.1-.1h-.1Zm-1.2,0s.1-.1.1,0Zm-.3,0Zm-6.7,3.9h0c0,.1,0,.2.1.2h-.2c.1-.1.1-.2,0-.2h.1Zm.1.4h0Zm0,0h0c.1.2.1.2,0,.3v-.3Zm-.2-.6Zm.3,9a1.3,1.3,0,0,0-.1-.6H14c-.1.2,0,.4,0,.6a.2.2,0,0,1-.2.2h0C13.9,23.6,13.8,23.5,13.9,23.5Zm-.1-3.1h0Zm-.1.1v.2c-.1-.1-.1-.1-.1-.2Zm0,11.8h-.1c.1-.1.1-.2,0-.2a.3.3,0,0,1,.1-.2c0,.1,0,.1.1.2Zm0,.5h-.1a.1.1,0,0,1,.1-.1Zm0-4h-.1v-.2C13.7,28.6,13.7,28.7,13.7,28.8ZM13.6,20h-.1a.1.1,0,1,1,.2,0C13.6,20,13.7,20.1,13.6,20Zm0,13.9v-.7h.1v.4h0c0,.1,0,.2-.1.2h-.1C13.6,34,13.6,34,13.6,33.9Zm-.7.4H13A.1.1,0,0,1,12.9,34.3Zm.4.7h-.1a.1.1,0,0,1,.1-.1Zm-.2-.3h.1c.1,0,.1.1.1.2Zm.3-14.1Zm.1.1Zm0,14.7a.1.1,0,0,1-.1.1h0c0-.1.1-.1.2-.1Zm0-1.1h.2c0,.1-.1.1-.1.2A.1.1,0,0,1,13.5,34.3Zm4.9,4.8a.2.2,0,0,1-.3,0h.3Zm5.2,2.7Zm.1.3h0c0-.1.1-.1.2,0Zm.2.1h0Zm.5-.2c-.1,0-.1,0-.1-.1h.1Zm.3-2.8c0-.1-.1,0-.2,0h-.1c0-.1,0-.1-.1-.1h.5c0,.1.1,0,.2,0Zm.6-.1h0a.1.1,0,0,1,.1.1h.2A.2.2,0,0,1,25.3,39.1Zm1,.1h-.6a.1.1,0,0,1,.2,0h.4Zm1-.1a.1.1,0,0,0-.1.1h-.4a.1.1,0,0,0,.1-.1H27a.1.1,0,0,0,.1.1c.1-.1.2,0,.3,0h.1C27.4,39.1,27.4,39.2,27.3,39.1Zm.7.1h-.1c0-.1.1-.1.2-.1A.1.1,0,0,0,28,39.2Zm1.2,3h0c0-.1,0,.1-.1,0h.1v.2Zm.4-.2c-.1,0-.1.1-.2.2h0c-.1-.1,0-.1,0-.2s0-.1.1,0Zm.2,0h0a.1.1,0,0,1,0,.2ZM32,39h.2C32.1,39.1,32.1,39.1,32,39Zm14.3.9c0,.2,0,.3-.1.4v-.2h0c.1,0,0-.1,0-.2h0A.1.1,0,0,1,46.3,39.9Zm2.6,1.9c0,.1-.1,0-.1,0h.1Zm.3-.2h-.1c.1,0,.1,0,.1-.1h0Zm.4-.1h-.3c.1-.1.2-.1.2-.2h.2C49.7,41.4,49.7,41.4,49.6,41.5Zm.4.5h-.1a.1.1,0,0,1,.1-.1h0Zm-.2-.7h0Zm1,.7h-.5c-.1,0-.2,0-.2-.1h.1c0,.1,0,.1.1.1h.5c.1,0,.2,0,.2.1Zm.7,0h0Zm.6.1H52c0,.1.1.1.2,0a.1.1,0,0,1,.1.1Zm3-3h.1A.1.1,0,0,1,55.1,39.1Zm.4,2.9h.1A.1.1,0,0,1,55.5,42Zm1.3-3a.1.1,0,0,0-.1.1c-.1-.1,0-.1,0-.1s0-.1,0-.1S56.8,38.9,56.8,39Zm1.1,0h0c.1,0,.2,0,.2.1Zm.3-.1h0c.1-.1.1,0,.1,0S58.3,39,58.2,38.9Zm3,3.4h-.4c-.2,0-.2,0-.3-.2h.1a.1.1,0,0,0,.1.1h.1a.3.3,0,0,0,.4,0h0Zm.8-4.1v.6h-.2c-.1-.1-.2,0-.3,0H50.3c-.1.1-.2.1-.2,0h-.7a1.6,1.6,0,0,1-.7,0h-.2c0,.1-.1.1-.1,0h-.1c-.1.1-.2,0-.3,0H46.9c-.2.1-.3.1-.4,0h0c-.1.1-.3,0-.4,0a.4.4,0,0,1-.5,0c-.2,0-.3.1-.5,0H45c-.1,0-.1.1-.1,0h-.1c-.1,0-.2.1-.3,0H43.4c-.1.1-.3,0-.4,0h-.4c-.2.1-.4,0-.6,0h-.5c0,.1-.1.1-.1,0h-.2c0,.1-.1,0-.1,0h-.2c-.1.1-.1,0-.2,0H39.6a.1.1,0,0,1-.1-.1H38.4c-.1.1-.2,0-.4,0h-.7c0-.1-.1-.1-.2-.1s-.1,0-.2,0h-.4c-.1,0-.2.1-.3,0a.1.1,0,0,0-.1.1h-.2c-.1-.1-.1-.1-.2.1h.2c0,.1,0,.2.1.2h-.6c0-.1,0-.1.1-.1a.1.1,0,0,0,.1-.1c.1,0,.1,0,0-.1H35c-.2.1-.4,0-.6,0h-1c-.1,0-.1.1-.2,0a.1.1,0,0,0-.1.1h-.6c0,.1,0,0-.1.1s-.1-.1-.1,0-.1,0-.1.1,0-.1,0-.1H30.9c-.2,0-.4.1-.6,0h-1c-.1,0-.3.1-.4,0s-.3,0-.5,0H26.9a.2.2,0,0,0-.3,0h-.2c-.2-.1-.4,0-.5,0h-.1c-.2-.1-.3,0-.5,0h-.1c-.1-.1-.1-.1-.2,0h0a.2.2,0,0,0-.3,0h-.3a.2.2,0,0,0-.3,0h-.5c-.1.1-.2,0-.3,0h-.2a.3.3,0,0,1-.4,0h-.4c-.1,0-.2,0-.2.1h-.3c-.1.1-.1,0-.1,0H21c0,.1-.1.1-.1,0h-.8c-.1-.1-.3,0-.5,0h-.4c0,.1-.1,0-.1,0a.1.1,0,0,0-.1-.1h-.6c0-.1-.1,0-.2-.1a.1.1,0,0,0,.1-.1h-.5c-.1,0-.2,0-.1.2h-.2c-.1,0-.1,0-.1-.1h0s.1-.1,0-.1h-.1c-.1,0-.1.1-.1.2s-.1-.2-.2-.2h-.8c-.1.1-.2.1-.4,0h-.1c-.1,0-.1,0-.1-.1H14.1c-.1,0-.1-.1-.1-.2v-.9a.3.3,0,0,0-.1-.2h0a1.3,1.3,0,0,0,.1-.6c0-.1-.1-.1-.1-.2h-.1v.2h-.1v-.5h.2a.1.1,0,0,0-.1.1h.1c.2,0,.2,0,.1-.1s0-.2.1-.2V36h0v-.8c0-.1-.1-.2,0-.3v-.4c.1,0,0,0,0-.1v-.4h0c-.1-.2,0-.4,0-.6v-.6a3.3,3.3,0,0,0,0-1h0v-.2c0-.2-.1-.3,0-.5h0c-.1-.2,0-.3,0-.5v-.2h0V28.3h0v-.3c0-.1.1-.1,0-.1s.1-.5,0-.7,0-.2-.1-.2a.4.4,0,0,0,.1-.3v-.4h0c.1-.2,0-.4,0-.6h0c0-.1-.1-.3,0-.4v-.5c-.1-.1-.1-.1,0-.2a1.3,1.3,0,0,0,.1-.6v-.5h0V21.6h0c-.1-.2-.1-.2,0-.4V21s-.1,0,0-.1-.1-.4,0-.6,0-.2-.1-.2h0a.3.3,0,0,0,.1-.2H14c.1-.1,0-.2,0-.3v-.2a.2.2,0,0,0,0-.3h0c-.1-.3.1-.6,0-.9v-.5h0s-.1-.1,0-.1,0-.2,0-.3a.1.1,0,0,0-.1-.1c-.1.1-.1.1-.1,0H14V15.5a.9.9,0,0,0-.1-.7c0-.1-.1-.2-.1-.3a.4.4,0,0,1,0-.5v-.2H14c-.1-.1,0-.1,0-.1s0-.2-.2-.2h0c.1,0,0-.1.1-.1h0c-.1-.2,0-.3,0-.4H14c-.1-.1,0-.2-.1-.4v-.7c0-.1.1-.2,0-.3h0c0-.1.1-.3.1-.4H57c.1.2.2.1.3.1h4.5c-.1.1,0,.1,0,.1s.1.1.1.2h-.1c-.1,0-.1.1-.1.2s.1.2,0,.2h0a.1.1,0,0,1,0,.2h-.1l.2.2v.2h0V13c0,.2,0,.3.1.4h-.1v.2a.8.8,0,0,1,.1.4h0a2,2,0,0,1-.1.7h0v.2c-.1,0-.1.1,0,.2h0a1.3,1.3,0,0,0-.1.6h0c.1.2.1.3,0,.4v.2h.1c0,.1-.1.2-.1.3a.1.1,0,0,1,0,.2c0,.1,0,.2.1.2v.2a.3.3,0,0,0,0,.4h0c-.1.2,0,.4,0,.7H62c.1,0,0,.1,0,.2h-.2c0,.2,0,.2.2.2a.8.8,0,0,1-.1.4h0v.5a.5.5,0,0,0,0,.5v.6a.3.3,0,0,0,0,.4v1a.4.4,0,0,1,.1.3h0a.4.4,0,0,0-.1.3h0a.2.2,0,0,0,0,.3v1c0,.1-.1.1,0,.1s-.1.6,0,.8a2.7,2.7,0,0,0,0,.9v1.5h0a2.2,2.2,0,0,0,0,.8h0c0,.2.1.3,0,.5a.8.8,0,0,0,.1.4s.1.1-.1.1h0a1.3,1.3,0,0,1,.1.6v.5c0,.1-.1.1-.1.2s0,.2,0,.3a2.2,2.2,0,0,1,0,.8c0,.1,0,.1.1.2V33a.2.2,0,0,0,0,.3h0a.3.3,0,0,1-.1.2c.1.1.1.2,0,.2a.4.4,0,0,0,.1.3v.6h0c-.1.2,0,.4,0,.6h0c.1.1,0,.1-.1.1h0c.2.1.1.3.1.4s0,.2,0,.3v.5h0c.1.1,0,.3,0,.4s0,.2,0,.3v.2A.2.2,0,0,1,62,38.2Zm0-14.8h.1a.1.1,0,0,1,.1.1h-.1C62,23.5,62,23.5,62,23.4Zm.1,1.7h.1A.1.1,0,0,1,62.1,25.1Zm.9-7.6h0c0-.1-.1-.1-.2-.1h0c-.1-.1,0-.1,0-.1h.3a.2.2,0,0,1,.2.2C63.2,17.5,63.1,17.4,63,17.5Zm1.3-3.7h0c-.1,0-.1,0-.1-.1h.1Zm.8,10.9h0c-.1,0-.1-.1-.1-.2Zm-.3-11.2h.1v-.7H65v.3h0c0,.2,0,.2-.1.3Zm.1.3a.1.1,0,0,1-.1-.1h.1ZM65,30h-.1a.1.1,0,0,0,.1-.1h0Zm.1-.4v.2c.1-.2,0-.4,0-.5s0-.1.1-.2h0c.1.1,0,.2,0,.3Zm-.1-1h.1v.2Zm.1-.4h0V28c-.1-.1-.1-.1,0-.2s0,.2.1.2S65.2,28.2,65.1,28.2Zm.5,7.5h-.1c0-.1,0-.1.1-.1h0Z" transform="translate(-7.8 -7.4)"/><path class="cls-1" d="M66.7,35.9Z" transform="translate(-7.8 -7.4)"/><path class="cls-1" d="M32.2,41.7v.2h-.1v.3c-.1,0,0,0,0,.1h.1c.1,0,.1,0,.1.1h.1c.1,0,0-.1,0-.2s-.1-.1,0-.1-.1-.2-.1-.3Z" transform="translate(-7.8 -7.4)"/><polygon class="cls-1" points="24.4 34.3 24.4 34.3 24.4 34.3 24.4 34.3 24.4 34.3 24.4 34.3"/><polygon class="cls-1" points="60 6.9 60 6.9 60 6.9 60 6.9"/><path class="cls-1" d="M68,14.3h0c.1-.1.1-.2,0-.2h-.2c-.1,0,0,.1,0,.1v.3h.1C68,14.2,67.9,14.3,68,14.3Z" transform="translate(-7.8 -7.4)"/><path class="cls-1" d="M68,35.5c0,.1,0,.1-.1.1h0c-.1-.1-.1,0-.1,0v.2h0a.1.1,0,0,0,.1-.1c0-.1,0-.1.1-.1s.1-.1.1-.2A.1.1,0,0,1,68,35.5Z" transform="translate(-7.8 -7.4)"/><polygon class="cls-1" points="0.4 6.9 0.4 6.9 0.4 6.9 0.4 6.9 0.4 6.9 0.4 6.9"/><path class="cls-1" d="M8.2,13.9H8a.1.1,0,0,0,.1-.1.1.1,0,0,1,.1.1V14C8.3,13.9,8.2,13.9,8.2,13.9Z" transform="translate(-7.8 -7.4)"/><path class="cls-1" d="M48,26.9a1.9,1.9,0,0,1,.1-.8c0-.2,0-.3-.1-.4h0c0-.2-.1-.3-.2-.3a.2.2,0,0,1-.2-.2c0-.1-.1-.1-.1-.2h-.1l-.4-.3h0c.2,0,.3-.1.3-.2s.2-.2.2-.3h0a.2.2,0,0,0,.2-.2h0v-.2c.1-.1,0-.3.2-.4h0v-.6a.8.8,0,0,0-.1-.4.2.2,0,0,1,0-.3v-.4s-.1,0,0-.1v-.3c-.1,0-.1-.1,0-.1h0c-.1-.1-.2-.1-.1-.2s.1-.1.1-.2h0c0-.1.1-.2.1-.3h0v-.2a.2.2,0,0,0,0-.3h.1V17.4c0-.3-.1-.6,0-.8V15.2h-.1a.1.1,0,0,0,0-.2l-.3-.4h-.1a.2.2,0,0,1-.2-.2h-.5a.1.1,0,0,0-.1.1H43.9c-.1,0-.1.1-.2,0H43c-.1,0-.2,0-.2.1h-.5c-.1,0-.2.1-.3,0H40.1l-.3.2h0v.2c0,.2.1.4,0,.6h0V16c0,.1.1.1,0,.2v3.3c.1,0,0,.1,0,.1s0,.2.1.2V20c0,.1,0,.2.1.2s0,.2-.1.2-.1,0,0,.1-.1.1,0,.1-.1.1,0,.1h0a4.3,4.3,0,0,1-.1.5c0,.2.1.3,0,.5h0c.1.1.1.2.2.2s.1.2,0,.2v.2c-.1,0-.1,0-.1.1h-.4a.3.3,0,0,1-.1.2.1.1,0,0,0-.1.1v.8h0v.3c0,.1-.1.2,0,.2v.9h.1a.1.1,0,0,1,.1.1c-.1,0,0,.1,0,.1h0a.2.2,0,0,0,.2.2.1.1,0,0,1,.1.1v.2h0c0,.1.1.1,0,.2s0,.1.1.2h0a3.7,3.7,0,0,0-.1,1.1c0,.1.1.1,0,.2h0c0,.2.1.3,0,.5h0c.1.1,0,.3,0,.5v1.3h0v1.2h0v.6c.1.1,0,.3,0,.5v.3h0c0,.2.1.3,0,.5h0c.1,0,.1.1,0,.1h0a.4.4,0,0,0,.1.3H40a.1.1,0,0,1,.1.1h-.2c-.1-.1-.1,0-.1,0v.2c.1,0,.1.1.1.2v.2h-.1c0,.1.2.2.1.3h.2l.3-.2c.1.2.1.2.2.1h.6c.1-.1.2,0,.3,0h.7a1.7,1.7,0,0,1,1,0h.4a.5.5,0,0,0,.5,0H47l.3-.2h.2v-.2h0a.2.2,0,0,0,.2-.2l.2-.3c0-.1.1-.2,0-.3s0-.1.1-.1h0a.2.2,0,0,0,0-.3h0c0-.1.1-.2,0-.3s-.1-.1,0-.1h0c0-.1.1-.1,0-.1h0c-.1,0-.1,0-.1-.1H48v-.6a2.8,2.8,0,0,1,.1-.9h0c-.1-.1-.1-.2-.1-.4s.1-.3,0-.4v-.3c.1-.1.1-.1,0-.2v-.2a.5.5,0,0,0,0-.5v-.6c.1-.1.1-.2.1-.4a.4.4,0,0,1,0-.5h0C48,27.4,48.1,27.1,48,26.9Zm-.4-11.7c.1-.1-.1-.1,0-.2h.1c0,.1.1.1,0,.2h-.1a.3.3,0,0,1-.1-.2Zm-.1,2.1h0Zm-8,7.2h0Zm0-1.4h-.1a.1.1,0,0,1,.1-.1h.1C39.6,23.1,39.6,23.1,39.5,23.1Zm.1,2.4h.1S39.6,25.6,39.6,25.5Zm.2.4h0Zm0-3.1Zm.3-3.2Zm-.1.3h.1c-.1.1,0,.3,0,.4a.1.1,0,0,1-.1-.1Zm0,.9h0c.1,0,.1,0,.1.1Zm0,.9h0v-.2h.1v.3H40Zm.1,5.8h.1a.1.1,0,0,1-.1.1h0C40,27.6,40,27.6,40.1,27.5Zm-.1-.7h0Zm-.1-1h0a.1.1,0,0,0,.1.1Zm0,7.5Zm.2-4.9c-.1.1-.1,0-.1,0v-.3l.2.2Zm.1,6.7h-.1A.1.1,0,0,1,40,35c0-.1-.1-.1,0-.2h0c.1,0,.1,0,.1.1v.2c0,.1,0,.1.1.1Zm0-7Zm.3-6.9h-.2c-.1-.1-.1-.1,0-.2h.2Zm.1-.1h-.1c0-.1,0-.1.1-.1h0Zm.2-.1c-.1,0-.1,0-.1-.1h.1a.1.1,0,0,1,.1.1Zm.3-.2a.1.1,0,0,1-.1-.1h.1Zm.7,14.6h0Zm3.1-18h0c.1,0,0,.1,0,.1Zm.1.7c-.1.1,0,.2,0,.3h-.2C44.8,18.3,44.8,18.2,45,18.1ZM44.7,17h-.1C44.6,17,44.6,17,44.7,17Zm-.2,0h-.1C44.4,16.9,44.5,16.9,44.5,17Zm-.3-.3Zm0,.2h0Zm-1.3,3.3h0Zm0-.2h-.1A.1.1,0,0,1,42.9,20Zm-.1-.3v.2A.1.1,0,0,1,42.8,19.7Zm0,.6h.1a.1.1,0,0,0,.1-.1v-.4a.2.2,0,0,1,0-.3V18.4a1.7,1.7,0,0,0,.1-.7h0c-.1,0-.1-.1,0-.2h0c-.1-.1,0-.1,0-.2h.1c.1,0,.3-.1.4,0h.1a.1.1,0,0,1,.1-.1c0,.1.1.1.2.1h.5a.2.2,0,0,1,.2.2.2.2,0,0,1,0,.3c-.1.1-.1.2,0,.2v.6s.1.1,0,.1v.9c.1,0,.1.1,0,.1V20h-.1v1.2a1.3,1.3,0,0,0,.1.6v.6c.1.1,0,.1,0,.1l-.4.2h-.7a.1.1,0,0,0-.1-.1c-.1.1-.1.1-.2,0h-.2c-.1,0-.1,0-.1-.1s.1-.2,0-.4v-.2c.1-.1,0-.3,0-.5h0c.1-.2,0-.4,0-.6s-.1-.1,0-.1h0c-.2-.1-.2-.1-.2-.2S42.7,20.3,42.8,20.3ZM44.7,23c0,.1,0,.1-.1.1s-.1,0-.2-.1h.2c0,.1,0,.1.1.1Zm-.4,2.7c-.1.1-.2,0-.2-.1Zm-.5,0Zm-.7.1H43A.1.1,0,0,1,43.1,25.8Zm1.6,6.8a.1.1,0,0,1-.1.1h-.4c0-.1-.1,0-.2,0h-.1c-.2.1-.2,0-.3-.1h-.3l-.3-.2h-.1c-.1,0-.1,0,0-.2v-.2s-.1-.2.1-.2h0c-.1,0,0,0,0-.1V29.9c.1,0,.1,0,0-.1v-.2s-.1-.1,0-.1v-.4h0v-.4h0v-.4h0V26.7a1.1,1.1,0,0,1,.1-.5h0c-.1-.1,0-.2.1-.3h.3a.1.1,0,0,0,.1-.1h0c.1.1,0,.2.1.2h.2c.1.1,0,.1-.1.2h.4c0,.1,0,0,.1,0h.2c.1,0,0,.1.1.2h0V27c0,.1.1.2,0,.3h0c.1.2,0,.4,0,.5h0c.1.2,0,.3,0,.5v1.1a.1.1,0,0,1,.1.1c-.1.1-.1.1,0,.1h0c-.1.1,0,.2,0,.3s0,.2.1.2v.4c-.1,0,0,.1,0,.1h-.1a.1.1,0,0,0-.1-.1h0c0,.1-.1.1,0,.2v.4a.1.1,0,0,0-.1.1c.1.2,0,.5,0,.7s0,.2.1.2.1.1.1.2S44.7,32.5,44.7,32.6Zm.1-1h0Zm.1.2h-.1a.1.1,0,0,1,.1-.1Zm-.1-.3V31C44.9,31.1,44.9,31.2,44.8,31.5Zm.2,3.8h0Zm.5-3.8h-.2c0-.2-.1-.3-.1-.4h-.1c0-.1,0-.1.1-.2s-.1-.1,0-.2h.1v.2c-.1.2,0,.3.1.4h.1Zm0-.8h-.1c.1-.1.1,0,.1,0Zm.1,0h0Zm1.1-16.2h0Zm.8,18.6h0c-.1,0-.1-.1-.2-.3s.1,0,.1.1.1.1.1.2Zm.2-1.6c0-.1,0,0,.1,0Zm.1,1c-.1,0-.1,0-.1-.1h.1Zm0-.3s-.1,0,0-.1h0c-.1,0-.1,0-.1-.1h-.1v-.2a.1.1,0,0,0,.1.1c.1,0,.1.1.1.2Z" transform="translate(-7.8 -7.4)"/><path class="cls-1" d="M37.6,25V24a.2.2,0,0,0,0-.3h0c0-.2.1-.3,0-.5h0a.3.3,0,0,0,.1-.2c-.1-.1-.1-.1-.1-.2v-.3h0c.1,0,0-.1,0-.1h0a.1.1,0,0,0,0-.2v-.3c.1,0,.1-.1,0-.1V21h0v-1c0-.1-.1-.2,0-.3s0-.2,0-.3V18.1c-.1-.1-.1-.1,0-.2a.8.8,0,0,0-.1-.7.8.8,0,0,1-.1-.4c-.1-.1-.1-.2,0-.2s0-.1.1-.1h0v-.2h.1c-.1,0,0-.1,0-.1s0-.2-.2-.2h0a.4.4,0,0,1,.1-.3h-.1c.1-.1.1-.1,0-.1h-.5c0-.1-.1-.1-.1-.2l.2-.2H34.6s-.1.1-.1,0a.1.1,0,0,0-.1.1h-.1c-.1,0-.1,0-.1.1s.1.1,0,.2v.3h0c-.1.1,0,.2,0,.3V16h0v.2a.2.2,0,0,0,0,.3v2.9h0c0,.1.1.3,0,.4h0c.1.1,0,.2,0,.3v.2c0,.1.1.3,0,.4v.2c0,.1.1.2,0,.3h0v.5a.8.8,0,0,0,.1.4c0,.1-.1.2-.1.3v1.4h0c0,.1.1.1.1.2a.1.1,0,0,0,0,.2c.1,0-.1.1-.1.1h0c.1,0,.1,0,.1.1v.5c.1,0,0,0,0,.1s-.1.4,0,.6v.4h0V27c0,.1,0,.1.1.1h0v.2h.1c-.1.2,0,.3,0,.4s0,.1-.1.2a.1.1,0,0,1-.1-.1.9.9,0,0,0-.1.5.1.1,0,0,1,.1.1h.1c.1,0,.1.1.2.2h-.3c-.1,0,0,0,0,.1a.1.1,0,0,1,.1.1c-.1,0-.1.1-.1.2a.6.6,0,0,0,.1.4h0a.6.6,0,0,0-.1.4h0a.4.4,0,0,0,.1.3h-.1v.4h0a.2.2,0,0,0,0,.3h0c0,.1-.1.1,0,.1V32a.4.4,0,0,0-.1.3c0,.2,0,.4-.2.4h-.2c-.1,0-.1,0-.1.1h-.2c-.1-.1,0-.1.1-.1s.1-.1.1-.2H32.4c-.1.2-.2.2-.3.1a.2.2,0,0,0-.2-.2v-.2h0c-.1,0-.2-.1-.1-.2s0,.1.1.1v-.4c.1-.1,0-.2,0-.3h.1c-.1-.1-.1-.1,0-.2v-.2h0v-.2c-.1-.1-.1-.1-.1-.2h0a.4.4,0,0,0,.1-.3c0-.1.1-.2.1-.3h-.1c0-.2,0-.3.1-.4h0v-.4c0-.2-.1-.4,0-.6v-.4a2.2,2.2,0,0,1,0-.8.3.3,0,0,0-.1-.2c0-.1-.1-.2,0-.4H32a.3.3,0,0,1,0-.4h0a4,4,0,0,1,0-1.1h0V23.3c0-.2-.1-.4,0-.6h0c-.1,0-.1-.1,0-.2V22a.2.2,0,0,1,0-.3h0v-.4c0-.2-.1-.4,0-.6h-.1v-.5c0-.1-.1-.2,0-.3V18.3h0v-1c-.1-.1-.1-.1,0-.2v-.3h0c0-.1.1-.2,0-.3v-.5h0V15h0v-.3h-.2v-.2h-.1l-.2-.2H30.1a.1.1,0,0,0-.1.1h-.6a.1.1,0,0,0-.1.1h-.2a.1.1,0,0,0-.1-.1h-.2a.1.1,0,0,1-.1.1c-.1,0-.1.1-.1.2h0c-.1.1,0,.2,0,.4a.1.1,0,0,1,0,.2h0v1c0,.2.1.3,0,.5h0v.3h0c0,.1.1.1.1.2a.1.1,0,0,0,.1-.1h.1a.1.1,0,0,1,.1.1c-.1.1,0,.2,0,.4a.1.1,0,0,0-.1.1h-.1v-.2h-.2v1.3c.1.1,0,.2,0,.3h0v.2c-.1,0-.1.1,0,.2V20c-.1.1,0,.1,0,.1v.3a.6.6,0,0,0,0,.6h0a.4.4,0,0,1-.1.3c.1.3,0,.5.1.8h0c-.1.1,0,.3,0,.4v.2a.1.1,0,0,0,0,.2v.7a.8.8,0,0,1-.1.4.1.1,0,0,1,.1.1v.3c-.1.2,0,.4,0,.6s0,.5-.1.7h0v.3a.7.7,0,0,0,.1.5h0c-.1.1,0,.2,0,.3a.6.6,0,0,1-.1.4h0a.8.8,0,0,0,.1.4h0v.6c-.1.1-.1.1,0,.2s0,.2,0,.3a.4.4,0,0,0-.1.3v1.1h0c-.1.2-.1.3,0,.4h0v.3c-.1.1,0,.3,0,.5s-.1.1,0,.1v.7h0v.2c0,.2-.1.4,0,.5s.1.5.1.7.1.2.1.4.1.2.2.3l.3.3h.5c.1-.1.1-.1.2,0h1.4c0,.1,0,.1.1.1s.2-.1.3,0,.3-.1.4,0h.2c.1,0,.2.1.3,0h1c.1,0,0,.1,0,.1H35c.1-.1.1-.1.2,0a.1.1,0,0,0,.1.1h0a.1.1,0,0,0,.1-.1c0,.2.1.2.2.1h.7l.4-.2h.2l.4-.6a.7.7,0,0,0,.1-.5v-.5a.4.4,0,0,1,.1-.3V32c0-.1-.1-.3,0-.4h0c-.1-.2,0-.5,0-.7s.1-.3,0-.5h0v-.7a.4.4,0,0,0,0-.5h0c.1-.1.1-.2,0-.2v-.2a1.5,1.5,0,0,0,.1-.7c-.1,0-.1,0-.1-.1h.1v-.2a.7.7,0,0,1,.1-.5c0-.2-.1-.3,0-.5a.4.4,0,0,0-.1-.3h-.1c.1,0,.1,0,.1.1h0c.1-.1.1-.2.1-.4s-.1-.1,0-.1A1.3,1.3,0,0,0,37.6,25Zm-8.8-7h.1C28.8,18.1,28.8,18.1,28.8,18Zm0,5.5h0c0-.1-.1-.1,0-.2h0c.1,0,0,.1,0,.1S28.9,23.5,28.8,23.5Zm0-3.2c0-.1-.1-.2,0-.3h0c.1.1,0,.1,0,.1h0C28.9,20.2,28.9,20.2,28.8,20.3Zm0-.7h.1C28.9,19.6,28.9,19.6,28.8,19.6Zm.1-1.3h0v.2a.1.1,0,0,0,0,.2V19h-.1a1.1,1.1,0,0,0-.1-.5l.2-.2H29A.1.1,0,0,1,28.9,18.3Zm.2-1.3c-.1,0-.1.1-.1,0h.1Zm.1.3h0Zm.1.4h-.1v-.2h.3C29.3,17.8,29.3,17.8,29.3,17.7Zm.1.3h.2C29.5,18,29.5,18.1,29.4,18Zm1.5-3.4h-.3l-.2-.2h.5Zm.7,17.2Zm.2-5.7h0c-.1,0-.1,0-.1-.1h.1Zm0-.3h-.1v-.2h.1C31.7,25.8,31.7,25.8,31.8,25.8ZM31.7,23h-.1C31.6,23,31.6,23,31.7,23Zm-.1,1.5h.1a.1.1,0,0,1,.1.1h-.1A.1.1,0,0,1,31.6,24.5Zm.3,8.1h-.1c0-.1,0-.1.1-.1Zm.7.1c-.1,0-.1,0-.1-.1h.1Zm.5.1h0Zm.4.1a.1.1,0,0,1-.1-.1h.1Zm.3.2h0c-.1-.1,0-.1,0-.1Zm.4-.5h.1c0,.1,0,.1-.1.1Zm.1.3h.1A.1.1,0,0,1,34.3,32.9Zm.1-13.2v-.2c0-.1,0-.1.1-.2v.2c.1,0,0,.3,0,.3h-.1Zm.1-.5Zm-.1,1.7v-.2h-.1c.1,0,.1-.1.1-.2h0C34.5,20.5,34.6,20.7,34.4,20.9Zm.1.4c-.1,0-.1,0-.1-.1h.1Zm0,6.8h-.1v-.3h.1S34.6,28.1,34.5,28.1Zm0-6h0c-.1-.2,0-.5,0-.7h.1a.2.2,0,0,0,0,.3Zm.1-3.3c-.2,0-.1-.1-.2-.2h0c0-.1.1,0,.1,0h.1v.2Zm2.7-1.7c0,.1,0,.2.1.2h-.2c.1,0,.1-.1,0-.1h.1ZM37,22.8h0Zm.1.1h0Zm0-6h.1A.1.1,0,0,1,37.1,16.9Zm.1,5.3Zm.2.6h0Zm0-.3h0a.1.1,0,0,1-.1-.1Zm0-4.9v.2a.4.4,0,0,1-.1-.3h.1Z" transform="translate(-7.8 -7.4)"/><path class="cls-1" d="M58.6,32.3V32a.7.7,0,0,0-.1-.5s-.1-.1,0-.1a.4.4,0,0,0,.1-.3c0-.1-.1-.2,0-.2V28.8h0v-2h0V25.2c0-.3.1-.6,0-.8v-.5h0c.1-.2,0-.3,0-.5s0-.2-.1-.2a.3.3,0,0,1-.1-.2h0v-.2H56.6c-.2,0-.4-.1-.6.1h0c-.1,0-.1,0-.1-.1H55a.1.1,0,0,0-.1-.1c-.1,0-.1,0-.1.1s-.1.2-.1.3-.1.1,0,.2h0c0,.1-.1.2,0,.2a.3.3,0,0,1-.1.2v1.1c.1,0,.1,0,0,.1v.4c0,.1,0,.2.1.2s.2.2.4.2a.1.1,0,0,0-.1.1h.1c.1-.1.1-.1.2,0V26a.6.6,0,0,1,.1.4.3.3,0,0,0,0,.4h0c0,.1-.1.2,0,.4v.4c.1.1,0,.1,0,.1a.6.6,0,0,1-.1.4c0,.2.1.3.1.5s.1.1,0,.1,0,.1,0,.1v.2a.6.6,0,0,0,0,.6h0v.4h0v1.2c.1,0,.1,0,0,.1v.2s.1-.1.1,0-.1.1-.1.2v.4c0,.1-.1.1-.2.2a.1.1,0,0,1,0,.2h-.2c.1,0,.1,0,.1-.1h-.4c-.1.1-.1.1-.1,0h0a.1.1,0,0,1-.1.1c-.1,0,0-.1-.1-.1s-.1.1-.2.1h-.1c-.1.1-.1.1-.2,0h-.1c-.1,0-.2.1-.2-.1h-.3c-.1,0-.1,0-.1-.1s0-.1.1-.2.1-.1.1-.2v-.2c-.1-.1-.1-.1,0-.1h0v-.2a.2.2,0,0,0,0-.3v-.2c.1-.1.1-.2,0-.2v-.4h0c.1-.1.1-.2,0-.4h0v-.4c.1-.2,0-.3,0-.4s.1-.3,0-.4-.1-.2,0-.3.1-.1,0-.1v-.9c0-.2.1-.4,0-.6h0v-.5c.1-.2.1-.3,0-.4v-.3a.2.2,0,0,0,0-.3v-.2a.3.3,0,0,0,0-.4v-.3h0a1.5,1.5,0,0,1,.1-.7v-.2a.4.4,0,0,1-.1-.3v-.6c.1-.2,0-.4,0-.6v-.4a1.1,1.1,0,0,0-.1-.5h0a1.1,1.1,0,0,0,.1-.5v-.6a1.6,1.6,0,0,1,0-.7c0-.1-.1-.2-.1-.4a.1.1,0,0,0,0-.2c0-.1,0-.2.1-.2s0-.3-.1-.4v-.3c0-.1,0-.1-.1-.1h0v-.2h.2a.6.6,0,0,1,.6,0h.8c0-.1.2-.1.2-.1s.1-.1.1,0h.2a.1.1,0,0,0,.1.1h.1c.1.1.1.2,0,.2s0,.2.1.2h-.1v.4a.3.3,0,0,1,0,.4c0,.1,0,.1.1.2s.1.1,0,.1h-.1c0,.1,0,.2.1.2h2.6c0-.1,0-.2.1-.2h0v-.6c0-.1.1-.1,0-.2v-1a.2.2,0,0,0,0-.3v-.2c.1-.1,0-.3,0-.4v-.3a.4.4,0,0,0,.1-.3v-.2a1.5,1.5,0,0,0-.1-.7.4.4,0,0,1-.1-.3l-.3-.2-.2-.2H51.3l-.3.2h-.1c-.2.3-.5.5-.6.8a.1.1,0,0,0-.1.1v.2c0,.2-.2.4-.1.6h0v.4h0a.6.6,0,0,1-.1.4v1.6a.4.4,0,0,0,.1.3v.7h0v.6c0,.1.1.2.1.3a.4.4,0,0,0-.1.3V21a.8.8,0,0,0,.1.4h.1v.2h0a.1.1,0,0,0-.1.1c0,.1.1.2,0,.3h0c0,.1.1.1.1.2h0c.1.1-.1.1,0,.1h0v.2c0,.1.1.2,0,.3h0c-.1,0-.1,0-.1.1h.1c-.1.1-.1.1,0,.2s0,.1,0,.1v.2c.1.1,0,.1-.1.1l.2.2h0v.4h0a.1.1,0,0,0-.1.1c.1.2.1.3,0,.4v.4a1.3,1.3,0,0,1,.1.6h0c0,.2-.1.4-.1.6s0,.1,0,.2v.4a.4.4,0,0,0,0,.5h0c-.1.1,0,.2,0,.3s.1.1,0,.2v.4c0,.2.1.3,0,.5h0c-.1.2,0,.3,0,.5v.7c.1.1.1.2,0,.2v.5h0v.8c0,.1-.1.1,0,.2v1h0c0,.1,0,.1.1.1s-.1.1-.1.2.1.3.1.4h0a.4.4,0,0,0,.1.3c0,.1.1.1.1.2h.1c0,.1.1.1.1.2l.4.3.5.2h.1c0,.1.1.1.2.1h1.1c0-.1.1,0,.1,0h.3s.1-.1.1,0,.4-.1.6,0h0a.1.1,0,0,1,.2,0h.7c.1.1.1.1.2,0s.4.1.6,0h.4c.1,0,.3.1.4,0h.6c0-.1.1-.1.2-.1l.5-.2.5-.5h.1a.4.4,0,0,0,.1-.3h0a.4.4,0,0,0,.1-.3c0-.1.1-.2,0-.3h0c.1-.1,0-.2,0-.3s0-.3-.1-.4h0c.2-.1.2-.1.1-.2Zm-3.5-9.1h-.2a.1.1,0,0,1,0,.2c0-.1,0-.2-.1-.2s0-.1.1-.1H55c.1.1.1.1.1.2Zm2.8-6.4h-.1v-.3c0,.1.1.2.1.3Zm.1-.4h0Zm.2-.5h-.1c-.1.1,0,.1,0,.2a.4.4,0,0,1,.1.3h-.1A.4.4,0,0,1,58,16h-.1a.4.4,0,0,1,.1-.3h.1C58.1,15.7,58.2,15.7,58.2,15.9Zm-.1-.5h0Zm-.2-.4s.2-.1.1.1h.1c-.1.1-.2.1-.2,0V15Zm-.1-.4v.2h-.3C57.6,14.7,57.7,14.7,57.8,14.6Zm-1.3-.3h0Zm-.9,2.5Zm-.3-.1h0Zm-5,14.5q-.1-.3,0-.3Zm0-15.5h0Zm.1-.1h0Zm.2-.1h0Zm.1-.4c0-.2,0-.2.2-.1Zm.4-.3h-.2c0-.1,0-.2.1-.2h.1Zm.5-.4h0Zm1.5,14.9h.1a.1.1,0,0,0,.1.1h0C53.1,29.5,53.1,29.5,53.1,29.3Zm1.3,3.5Zm.7.3h0c-.1,0-.2,0-.2.1h-.1s-.1-.1,0-.1a.1.1,0,0,1,.1-.1c0-.1-.1,0-.1-.1h.3V33c.1,0,.2-.1.2,0S55.1,33,55.1,33.1Zm.9-2.6c.1,0,.1,0,.1.1H56Zm-.1.4H56A.1.1,0,0,1,55.9,30.9Zm-.2-.7c.1.1.1.1,0,.2Zm-.2.5c.1,0,.1.1.1.2S55.5,30.8,55.5,30.7Zm.2,1.7a.1.1,0,0,1-.1-.1h.1Zm.1-.1h0C55.9,32.3,55.9,32.3,55.8,32.3Zm.2-.6h-.2v.4c-.1-.1-.1-.1-.1-.2v-.2c0-.1-.1-.3-.1-.4v-.3a.1.1,0,0,1,.1-.1c.1.1.1,0,.1-.1v-.3h.1v.2l.2.3h.1a.1.1,0,0,0-.1.1h0Zm.1-.5h0Zm.5-.4h0ZM58,23.4s-.1-.1,0-.1h0C58.1,23.3,58,23.4,58,23.4Zm-.3-.4c-.1,0-.1,0-.1.1s-.2,0-.2-.2.2.1.2,0h.3a.1.1,0,0,1,.1.1h-.1A.1.1,0,0,1,57.7,23Zm.2.4s0,.1.1,0h0c0,.1.1.2.1.3H58C57.8,23.6,57.8,23.5,57.9,23.4Zm0,.3c.1.1.2.2.1.4v-.4Zm0,.6h0a.1.1,0,0,1,.1.1Zm.1,9.4Zm0-.7h0a.2.2,0,0,1,0-.3c.1,0,0-.1,0-.1v-.4h.1v.2s.1,0,0,.1.1.3.1.5Zm.3,1.7a.1.1,0,0,1-.1-.1h-.1V34c.1.1.1.2.1.4s0,.1.1.2Zm0-1.9h0Zm.1,1a.3.3,0,0,1-.1-.2.1.1,0,0,1,.1-.1h0Z" transform="translate(-7.8 -7.4)"/><path class="cls-1" d="M26.4,17a.1.1,0,0,1-.1-.1c.1-.2.1-.3,0-.4v-.4c.1-.2,0-.4,0-.7v-.2c-.1-.1-.1-.3-.2-.4s-.1-.2-.2-.3H24.4a.1.1,0,0,0-.2,0c-.1,0-.2,0-.2-.1s-.2.2-.3.1h-2c-.2.1-.5,0-.7,0s-.4,0-.7,0-.3.1-.5,0H17.9c-.1,0-.1.1-.1.2v.4c0,.1-.1.3,0,.4V16c0,.1.1.2,0,.3h0v1.3h.1c0-.1.1,0,.1,0h-.2v1.6c0,.1.1.2,0,.3a.2.2,0,0,1,0,.3c0,.1-.1.2,0,.4h0v.8h0v.7h0v.3c0,.2-.1.3,0,.4h0v.4h0c0,.2,0,.2-.1.2h-.2c0,.1-.2.2-.1.3h0v.3a.4.4,0,0,1-.1.3V25c.1,0,.1,0,.1.1a.5.5,0,0,0,0,.5h0c-.1.1,0,.3-.1.4h0c.1.2,0,.4.1.6h0c.1,0,.1,0,.1-.1h.2v.2c.1,0,.2,0,.2.1H18v.2c.1,0,.1.1,0,.1h-.2a.1.1,0,0,0,0,.2v.3h0c.1.1,0,.1,0,.2a.4.4,0,0,0,0,.5c0,.1.1.2,0,.3v.2a.6.6,0,0,1,.1.4c-.1.1-.1.2,0,.2s0,.2-.1.2v.5c0,.2-.1.4,0,.6h0v.4c0,.1-.1.3,0,.5v.6h0c0,.1-.1.3,0,.4h0c-.1.2,0,.4,0,.5h0c-.1.2,0,.3,0,.5h0v.5h0c0,.1,0,.1.1.1H18c0,.1.1.2.1.3h0c.1,0,.1,0,.1.1s-.1,0-.1.1h.5c.1-.1.2-.1.2,0h.9c.1,0,.2-.1.3,0h.8a.1.1,0,0,0,.1-.1h.2c-.1-.2-.1-.2,0-.3a.1.1,0,0,0,.1-.1c0-.2.1-.3.1-.4v-.3c0-.1,0-.1-.1-.2V34c.1-.2,0-.3,0-.5v-.2h0c.1,0,.1-.1,0-.1v-.5h0a1.3,1.3,0,0,0-.1-.6c.1,0,.2,0,.1-.2v-.2a4.3,4.3,0,0,0,.1-.5v-.4a1.5,1.5,0,0,0,.1-.7h0c-.1-.2,0-.3-.1-.5v-.3c.1,0,0,0,0-.1v-.9h0c0-.1-.1-.2-.1-.3h.1v-.2c-.1-.1,0-.1-.1-.2H21v.2c-.1-.1,0-.2-.1-.2H21c.1,0,.2,0,.1-.1v-.2h.1c.2,0,.3-.1.4,0s.2.1.2,0h3.5c0-.1.1-.1.2-.1a.1.1,0,0,0,.1.1l.4-.4h0a.5.5,0,0,0,.2-.4h0c.1-.1.1-.2.1-.4h0V23.5h0v-.2a2.2,2.2,0,0,0,0-.8V21.2c.1-.1,0-.3,0-.4s.1-.2,0-.3h0a.1.1,0,0,0,0-.2v-.5h0v-.2h0v-.8c.1,0,0-.1,0-.1v-.4c.1-.2,0-.4,0-.6s0-.1,0-.1h0A.4.4,0,0,0,26.4,17Zm-8.7,7h0Zm.6-5.7Zm0,10h0a.3.3,0,0,1,.1.2.1.1,0,0,1-.1-.1c-.1,0,0,.1-.1.1a.3.3,0,0,0-.1-.2h.2S18.2,28.4,18.3,28.3Zm-.1-.1h0s-.1,0,0-.1h0ZM18,14.5h0Zm.1,4h0a.1.1,0,0,0-.1-.1Zm-.2,2.3h0c.1,0,.1,0,.1.1h-.1Zm.1,1.5h0Zm0-2.2h0c0-.1-.1-.1,0-.2v-.3h0c.1-.1.1-.1.1-.2s0-.2.1-.2h.1c-.1.1,0,.2,0,.3s-.1.1,0,.1,0,.2-.1.2S18.1,20.1,18,20.1Zm0,7.5h0Zm0,.2h.1a.3.3,0,0,1,.1.2h-.1c0-.1,0-.1-.1-.1h0C17.9,27.9,18,27.8,18,27.8Zm0,1.5h0c.1,0,.1.1.2.2Zm.2-.5c0,.2,0,.3.1.4H18c.1-.1,0-.2,0-.3s-.1-.1,0-.1h.1a.1.1,0,0,1,.1.1c.1,0,0-.1.1-.1h0c.1.1,0,.1.1.2ZM23.1,20h0Zm0-1.4H23A.1.1,0,0,1,23.1,18.6Zm-2.5,4.1c.1,0,.1,0,.1.1V23c0-.1-.1-.2-.2-.3Zm-.1,11.1h-.1c0-.1,0-.1.1-.1h0Zm0-10.5h.1c.1,0,.1,0,.1.1l.2.2h-.1c.1,0,0,0,0-.1a.2.2,0,0,1-.2-.2Zm.3.4h0Zm.2.5h0Zm.8,0c0,.1-.1.1-.2.1h-.2c.1-.1.1-.2.2-.1h.2Zm.5,0h-.2a.1.1,0,0,1-.2,0h0A.1.1,0,0,1,22,24h.3Zm.2.1.2-.3C22.8,24.2,22.8,24.3,22.5,24.3Zm.8-1.2c-.1.1,0,.2,0,.3h.1a.1.1,0,0,1-.1.1h-.1c-.1.1-.1,0-.1-.1H23c0-.1,0-.1-.1,0h0c.1.1.1.1.1.2s.1,0,0,.1-.1.1-.2,0H21.3c-.1,0-.1,0-.1-.1s0-.1,0-.1a.2.2,0,0,1-.2-.2h0c0-.2.1-.2.2-.2a.1.1,0,0,1,.1-.1V21.3a.4.4,0,0,0-.1-.3h0c.1-.1,0-.3,0-.4v-.4c.1-.1,0-.2,0-.3h0v-.4h0s-.1-.1,0-.1,0-.3,0-.4v-.2a.1.1,0,0,0,0-.2h0c.1-.1,0-.2,0-.4h0a.2.2,0,0,1,0-.3h0c.1-.1.2-.2.3-.1h.9c.1,0,.1,0,.1.1h.3c.1.1.2.1.1.3H23v.2h0c-.2.1-.1.1-.1.2s-.1.2,0,.2v.4c-.1,0,0,.1,0,.2v1a.1.1,0,0,0,0,.2.2.2,0,0,1,0,.3v.2h0c0,.2.1.4,0,.6h0c.1.1,0,.2,0,.3a.9.9,0,0,0,.1.5h0c-.1.1-.1.1-.1.2v.2c-.1.2,0,.3,0,.5s.1.1.1.2h.1v-.3h0a.1.1,0,0,1,.1.1h.1c0-.1,0-.1.1-.1s0,.1-.1.2h-.1C23.2,23,23.3,23,23.3,23.1Zm.1-.8v-.2h.1Zm.5-7.8Zm.4,12.2h.2C24.4,26.8,24.4,26.8,24.3,26.7Zm.5,0Zm.3-12.1h0Zm.1.1c.2-.1.2,0,.2.1Zm.9,4.8v-.2C26.1,19.3,26.1,19.4,26.1,19.5Zm-.3-4.6h0ZM26,25.1Z" transform="translate(-7.8 -7.4)"/><path class="cls-1" d="M37.1,14.7h.3a.1.1,0,0,0,.1-.1h-.4C37.2,14.6,37.2,14.6,37.1,14.7Z" transform="translate(-7.8 -7.4)"/><path class="cls-1" d="M34.5,14.5h0Z" transform="translate(-7.8 -7.4)"/><path class="cls-1" d="M14.8,10.9h0Z" transform="translate(-7.8 -7.4)"/><path class="cls-1" d="M31.4,14.3H32c0-.1-.1-.2-.2-.1h0c-.1-.1-.3,0-.4,0Z" transform="translate(-7.8 -7.4)"/><polygon class="cls-1" points="23.5 6.9 23.5 6.9 23.5 6.9 23.5 6.9"/><path class="cls-1" d="M20.6,10.8Z" transform="translate(-7.8 -7.4)"/><path class="cls-1" d="M58.1,32.9Z" transform="translate(-7.8 -7.4)"/><polygon class="cls-1" points="15.1 38.3 12.9 41.7 10.7 38.3 7.8 38.3 7.8 45.2 10.4 45.2 10.4 42.1 12.9 45 15.5 42.1 15.5 45.2 18 45.2 18 38.3 15.1 38.3"/><path class="cls-1" d="M32.8,45.7H27.9a1.2,1.2,0,0,0-1.2,1.2v4.4a1.2,1.2,0,0,0,1.2,1.2h4.9A1.3,1.3,0,0,0,34,51.3V46.9A1.2,1.2,0,0,0,32.8,45.7Zm-1.6,5.7H29.4V46.7h1.8Z" transform="translate(-7.8 -7.4)"/><path class="cls-1" d="M42.1,47.8V46.7a1,1,0,0,0-1-1H35.2v2.7s-.6.2-.5.6a.7.7,0,0,0,.5.5v3.1h5.9a1.1,1.1,0,0,0,1-1V49.8a1.1,1.1,0,0,0-1-1A1,1,0,0,0,42.1,47.8Zm-2.7,3.4a.5.5,0,0,1-.5.4h-.4a.4.4,0,0,1-.4-.4V49.8a.4.4,0,0,1,.4-.4h.4a.5.5,0,0,1,.5.4Zm0-3.1a.5.5,0,0,1-.5.4h-.4a.4.4,0,0,1-.4-.4v-.9c0-.3.1-.5.4-.5h.4a.5.5,0,0,1,.5.5Z" transform="translate(-7.8 -7.4)"/><rect class="cls-1" x="35.5" y="38.3" width="2.9" height="6.79"/><polygon class="cls-1" points="42.6 44 42.6 38.3 39.7 38.3 39.7 45.1 41.2 45.1 41.2 45.2 44.8 45.2 44.8 44 42.6 44"/><path class="cls-1" d="M60.3,46.7v-1H53.8v2.8h0a.6.6,0,0,0-.6.6.6.6,0,0,0,.6.5h0v3h6.5V51.5H56.6v-2h3.7v-1H56.6V46.7Z" transform="translate(-7.8 -7.4)"/></svg>