<svg id="Layer_13" data-name="Layer 13" xmlns="http://www.w3.org/2000/svg" viewBox="0 0 62.5 15"><defs><style>.cls-1{fill:#fff;}</style></defs><path class="cls-1" d="M6.8,22.5v15H21.4v-15Zm6.1,1.9H16a11,11,0,0,0-.6,2.8H13.5a11.9,11.9,0,0,0-.6-2.8ZM8.8,31.7H8.7v-3a16.5,16.5,0,0,0,2.7.6v1.9A9,9,0,0,0,8.8,31.7Zm3.3-.5v-2h.9v2Zm1.4-3.4h1.9v.9H13.5Zm.3,2.5.6-.7.6.6-.6.7Zm.8,1.6L16,30.5l.6.7-1.3,1.3Zm2.7,3.4a14.6,14.6,0,0,0-1.5-2.4l1.3-1.3a9.7,9.7,0,0,0,2.4,1.5h0Z" transform="translate(-6.8 -22.5)"/><path class="cls-1" d="M22.9,22.5H33.4v3.1H22.9Z" transform="translate(-6.8 -22.5)"/><path class="cls-1" d="M22.9,25.6V37.5h3.2V33.1h1.4v4.4h5.9V34.3H30.5V33.1h2.9V25.6H30.5V30H26.1V25.6Z" transform="translate(-6.8 -22.5)"/><path class="cls-1" d="M35.1,22.5v15H45.4v-15h-3V34.3H38.2V22.5Z" transform="translate(-6.8 -22.5)"/><path class="cls-1" d="M57.3,22.5H47v8.7h7.3v3.1H47v3.2H57.3V28H50.1V25.6h7.2Z" transform="translate(-6.8 -22.5)"/><path class="cls-1" d="M58.9,22.5H69.2v3.1H65.6V37.5H62.7V25.6H58.9V22.5Z" transform="translate(-6.8 -22.5)"/></svg>