<svg id="Layer_17" data-name="Layer 17" xmlns="http://www.w3.org/2000/svg" viewBox="0 0 62.9 32.8"><defs><style>.cls-1{fill:#fff;}</style></defs><path class="cls-1" d="M28.9,22.1a9,9,0,0,1,.3-1.6,8.6,8.6,0,0,1,3.1-4.8,7.8,7.8,0,0,1,4-1.9,8.9,8.9,0,0,1,6.4,1.1,9.2,9.2,0,0,1,3.1,12.8,8.7,8.7,0,0,1-4.9,3.9,10,10,0,0,1-3.4.5,9.8,9.8,0,0,1-5.6-2.4,9.3,9.3,0,0,1-2.6-4.1c-.1-.1-.1-.1-.1-.2h0l.9.3,2.5,1.1c.1,0,.1.1.1.2a2.7,2.7,0,0,0,2.6,1.9,2.6,2.6,0,0,0,2.5-2,1.3,1.3,0,0,1,.1-.6v-.2l3-2.1h.2a3.3,3.3,0,0,0,3-2,3,3,0,0,0-.2-3.4A3.2,3.2,0,0,0,40.5,17a3.5,3.5,0,0,0-2.8,2.4,3.4,3.4,0,0,0-.1,1,.3.3,0,0,1-.1.2l-2,3h-.2a2.3,2.3,0,0,0-1.4.4h-.2l-4.7-2Z" transform="translate(-6.5 -13.6)"/><path class="cls-1" d="M52.6,34.6h1.8c.3-.1.5.1.6.4l3.6,7.7c0,.1.1.2.1.3a6.7,6.7,0,0,1,.6-1.2c1-2.4,2-4.7,3.1-7a.2.2,0,0,1,.2-.2h2.2V46.2H62.5v-7h-.1v.2c-.9,2.1-1.9,4.1-2.9,6.2-.1.2-.1.3-.3.3a1.4,1.4,0,0,0-.9,0,.3.3,0,0,1-.3-.3c-1-2-2-4.1-2.9-6.2l-.2-.2v7H52.6Z" transform="translate(-6.5 -13.6)"/><path class="cls-1" d="M50,46.2H47.7c-.2,0-.3,0-.3-.2s-.5-1.2-.7-1.9a.2.2,0,0,0-.2-.2H42.3c-.1,0-.2.1-.2.3L41.4,46a.2.2,0,0,1-.2.2H38.9a8.8,8.8,0,0,1,.5-1.5l3.7-9.9c.1-.2.1-.2.3-.2h1.9c.2,0,.3,0,.4.2.9,2.5,1.9,4.9,2.8,7.3s1,2.6,1.4,3.8A.4.4,0,0,1,50,46.2Zm-5.6-8.8h-.1L42.8,42H46Z" transform="translate(-6.5 -13.6)"/><path class="cls-1" d="M29,34.6h7.7v2H31.4V39c-.1.2,0,.3.2.3H36v2H31.7c-.3,0-.4.1-.3.4v2.4h5.3v2.1H29Z" transform="translate(-6.5 -13.6)"/><path class="cls-1" d="M13.7,37.3a4.6,4.6,0,0,0-1.9-.8,4,4,0,0,0-1.9.1,1.1,1.1,0,0,0-.7.9.9.9,0,0,0,.5,1.1l1.3.5,2.5,1c2.3,1.2,1.8,4.2.3,5.3a4.6,4.6,0,0,1-2.5,1,8.7,8.7,0,0,1-4.5-.9c-.3-.1-.3-.2-.2-.5l.6-1.7.8.4a8,8,0,0,0,3.1.4l.7-.2a1.2,1.2,0,0,0,.7-1,1.2,1.2,0,0,0-.6-1l-1.8-.7A9.5,9.5,0,0,1,8,40.3,3.2,3.2,0,0,1,8.2,35a4.3,4.3,0,0,1,2.2-.6,7.2,7.2,0,0,1,3.8.7l.5.4Z" transform="translate(-6.5 -13.6)"/><path class="cls-1" d="M22.8,46.2H20.4V36.6H16.9v-2h9.3v2H22.8Z" transform="translate(-6.5 -13.6)"/><path class="cls-1" d="M43.3,20.5A2.3,2.3,0,0,1,41,22.8a2.3,2.3,0,0,1-2.3-2.4,2.5,2.5,0,0,1,2.4-2.3A2.3,2.3,0,0,1,43.3,20.5Zm-.5,0A1.8,1.8,0,1,0,41,22.2,1.8,1.8,0,0,0,42.8,20.5Z" transform="translate(-6.5 -13.6)"/><path class="cls-1" d="M33.5,27.2l.9.3a1,1,0,0,0,.9.2,1.4,1.4,0,0,0,1.3-1.1,1.5,1.5,0,0,0-.7-1.6l-1.2-.5h-.1a1.9,1.9,0,0,1,2.4.9,2,2,0,0,1-.9,2.7A2.1,2.1,0,0,1,33.5,27.2Z" transform="translate(-6.5 -13.6)"/><path class="cls-1" d="M69.5,36a1.5,1.5,0,0,1-1.6,1.6A1.6,1.6,0,1,1,69.5,36Zm-3,0a1.4,1.4,0,0,0,1.4,1.4A1.3,1.3,0,0,0,69.2,36a1.2,1.2,0,0,0-1.3-1.3A1.3,1.3,0,0,0,66.5,36Z" transform="translate(-6.5 -13.6)"/><path class="cls-1" d="M67.4,35.2H68c.2.1.4.2.4.3s0,.4-.1.5a.2.2,0,0,0,0,.3l.2.5c-.2,0-.3,0-.3-.2s-.1-.1-.1-.2a.4.4,0,0,0-.5-.2v.4c0,.1-.1.1-.1.2h-.1Zm.2.2V36l.5-.2c.1,0,.1-.2,0-.2Z" transform="translate(-6.5 -13.6)"/></svg>