<svg id="Layer_4" data-name="Layer 4" xmlns="http://www.w3.org/2000/svg" viewBox="0 0 62.9 41.6"><defs><style>.cls-1{fill:#fff;}</style></defs><path class="cls-1" d="M37.2,33.6H32.6a1.1,1.1,0,0,1-.9-.5L21.9,21a1.4,1.4,0,0,1-.3-.9V8.1h.3c.1,0,.1.1.1.2L33.1,21.9c3,3.8,6,7.5,8.9,11.3a.2.2,0,0,1,.2.2c.1.1,0,.2-.1.2H37.2Z" transform="translate(-6.8 -8)"/><path class="cls-1" d="M52.9,14.3v5.8a1.1,1.1,0,0,1-.3.9l-2.8,3.5a1,1,0,0,1-.9.4H39.6c-.1,0-.2.1-.3-.1s0-.2.1-.3c4.4-5.4,8.7-10.9,13.1-16.4h.4v6.2Z" transform="translate(-6.8 -8)"/><path class="cls-1" d="M31.3,49.6a4.5,4.5,0,0,1,0-9,4.4,4.4,0,0,1,4.5,4.5A4.5,4.5,0,0,1,31.3,49.6Zm.1-1.5H32a2.9,2.9,0,0,0,2.2-2.2,3.1,3.1,0,0,0-1-3,2.8,2.8,0,0,0-3.8,0,3.1,3.1,0,0,0-.6,3.8A3.2,3.2,0,0,0,31.4,48.1Z" transform="translate(-6.8 -8)"/><path class="cls-1" d="M42.1,45.5l3,3.8H43l-.2-.3c-.8-1-1.7-2-2.5-3.1h-.1a.2.2,0,0,1,0-.3l.6-.8,1.6-2,.2-.2H38.9v6.6c0,.5,0,.5-.4.5h-1c-.1,0-.2,0-.2-.2h0V41.2c0-.4,0-.4.4-.4H44c.2,0,.2,0,.2.3v1.5a.8.8,0,0,1-.2.5l-1.7,2.2Z" transform="translate(-6.8 -8)"/><path class="cls-1" d="M60.1,46.8V41.2c0-.4,0-.4.3-.4h1c.2,0,.2,0,.2.2v7.9h0c0,.3,0,.3-.3.3h-.9a.7.7,0,0,1-.6-.3l-4.4-5.5c0-.1-.1-.2-.2-.3a2.6,2.6,0,0,0,0,.9v2.7H55l-1.3-1.6a.6.6,0,0,1-.1-.4V41.1c0-.3,0-.3.3-.3H55a.5.5,0,0,1,.4.2c.7,1,1.5,1.9,2.2,2.8s1.5,1.8,2.2,2.8Z" transform="translate(-6.8 -8)"/><path class="cls-1" d="M15.4,46.3c-.1.1-.2.2-.2.3l-2,2.4c-.1.2-.3.4-.5.3H11l.2-.2,6.3-7.9a.8.8,0,0,1,.8-.4h.9c.2,0,.2,0,.2.2v8c0,.3,0,.3-.4.3a3.3,3.3,0,0,1-1,0l-.4-.2-.7-.9-1.3-1.6Zm2.4-3.1-1.5,1.9.5.6.5.6.5.7A24.1,24.1,0,0,0,17.8,43.2Z" transform="translate(-6.8 -8)"/><path class="cls-1" d="M50.4,46.3c0,.1-.1.2-.2.3s-1.3,1.6-1.9,2.5-.4.3-.6.2a2.7,2.7,0,0,1-.9,0c-.3,0-.4,0-.4-.3V41.2c0-.4,0-.4.4-.4h.9a.9.9,0,0,1,.6.3l4.6,5.8L54.6,49c0,.1.1.2.2.3H53.2a.5.5,0,0,1-.5-.3l-2-2.5Zm-2.4.6h.1l1.5-1.8A11.2,11.2,0,0,0,48,43.2Z" transform="translate(-6.8 -8)"/><path class="cls-1" d="M6.8,49.3V40.9H8c.2,0,.3,0,.3.3v5.7l.2-.2,2.3-2.8,2.1-2.7c.2-.2.3-.3.5-.3h1.7l-.2.3-3.3,4.1L8.6,49a.8.8,0,0,1-.7.4Z" transform="translate(-6.8 -8)"/><path class="cls-1" d="M69.7,42.2H66.8v6.8c0,.2,0,.2-.2.2H65.2V42.3H63.1c-.3,0-.3,0-.3-.3V41c0-.2,0-.2.2-.2h5.5a.2.2,0,0,1,.2.2l1,1.1Z" transform="translate(-6.8 -8)"/><path class="cls-1" d="M26.7,47.9a.3.3,0,0,0-.1.2l-.8,1a.7.7,0,0,1-.6.3H21.7c-.3,0-.3,0-.3-.2v-8c0-.3,0-.3.3-.3h1c.2,0,.3,0,.3.2v6.5c0,.4,0,.4.3.4h3.4Z" transform="translate(-6.8 -8)"/></svg>