<svg id="Layer_17" data-name="Layer 17" xmlns="http://www.w3.org/2000/svg" viewBox="0 0 64 31"><defs><style>.cls-1{fill:#fff;}</style></defs><path class="cls-1" d="M47.2,32.6a10.9,10.9,0,0,0,.4-2.4V19.9h3.7V29h8.1c0-2.7,0-5.5-.1-8.2a1.6,1.6,0,0,1,1.1-1.7c2.9-1.3,5.6-2.7,8.4-4.1l1.2-.5c-.3,1.5-.6,2.9-1,4.3s-.4.5-.7.7l-1.6.7c-2.6,1.2-2.8,1.4-2.7,4.6l4.8-2.5c-.3,1.4-.5,2.6-.8,3.8s-.5.5-.7.7l-2.9,1.6a2.4,2.4,0,0,0-1.3,1.8c-.9,3.8-1.9,7.7-3,11.5a17.2,17.2,0,0,1-2,3.8l1.4-12.9Z" transform="translate(-6 -14.5)"/><path class="cls-1" d="M28.4,32.5c-1.4,0-2.9.1-4.4,0a2.4,2.4,0,0,1-1-.5l-2.8-2.6c-1.6,1.4-3.2,2.8-4.7,4.3a1.6,1.6,0,0,0-.4,1.2l1.8,8.4a2.4,2.4,0,0,1,.1,1.2L16.1,43c-2.4-4.7-3.6-9.7-4.7-14.8a29.3,29.3,0,0,1-.5-2.9,2.5,2.5,0,0,0-1.8-2.5,3.5,3.5,0,0,1-2.6-3.9A36.5,36.5,0,0,0,6,14.7l1.8,1,6,3.4a1.5,1.5,0,0,1,.9,1.5V29l5.2-4.9,4.5,4.1V19.9h3.7V30.8A10.1,10.1,0,0,0,28.4,32.5Z" transform="translate(-6 -14.5)"/><path class="cls-1" d="M30.7,27.5h3.4l.2,1.7h2.3v3.3C32.4,33.3,29.9,31.7,30.7,27.5Z" transform="translate(-6 -14.5)"/><path class="cls-1" d="M45.2,27.6c.8,4.2-1.8,5.7-5.9,4.9V29.3h2.3V27.6Z" transform="translate(-6 -14.5)"/><path class="cls-1" d="M30.7,24.9c-.8-3.7,1.2-5.8,5.9-4.9v3.2H34.3l-.2,1.7Z" transform="translate(-6 -14.5)"/><path class="cls-1" d="M45.1,24.9H41.7V23.3H39.3V20C43.5,19.1,46.1,20.9,45.1,24.9Z" transform="translate(-6 -14.5)"/><path class="cls-1" d="M49.3,36.3H46.8v3.4a6.1,6.1,0,0,1-.5,1.2,6.1,6.1,0,0,1-.5-1.2,14.7,14.7,0,0,1,0-2.1A2,2,0,0,1,48,35.4a20.5,20.5,0,0,1,3.5,0c1.5,0,2.2.7,2.2,2.1a26.1,26.1,0,0,1,0,2.8c0,.2-.3.4-.5.6s-.3-.4-.3-.6a13.4,13.4,0,0,1,0-2v-2H50.5v4.4c-.9.3-1.2.1-1.2-.7Z" transform="translate(-6 -14.5)"/><path class="cls-1" d="M38.2,38.8c-.6.6.5,2-1.2,2.1a17.7,17.7,0,0,1,.1-4c.1-.6,1.1-1.3,1.8-1.5a10.7,10.7,0,0,1,3.1,0,1.9,1.9,0,0,1,1.8,1.7c0,1,0,2.1-.1,3.1s-.3.4-.5.7-.4-.5-.4-.8a5.6,5.6,0,0,1,0-1.3Zm-.1-1.1h4.6V36.3H38.1Z" transform="translate(-6 -14.5)"/><path class="cls-1" d="M29.6,38.6v1.7h5.5a.6.6,0,0,1-.1.4,43.4,43.4,0,0,1-5.1.1,1.5,1.5,0,0,1-1.3-1.6c.2-1.2-.5-2.5.8-3.4a2.1,2.1,0,0,1,1-.4,25.4,25.4,0,0,1,3.9,0c.3,0,.6.3.8.4s-.5.4-.8.4H29.7v1.6h4.6l.8.3c-.3.2-.5.5-.8.5S31.2,38.6,29.6,38.6Z" transform="translate(-6 -14.5)"/><path class="cls-1" d="M26.6,36.2H23.9v4.5c-.8.3-1.2.1-1.2-.7s.1-2.4.1-3.8H20.6c-.2,0-.4-.3-.6-.4s.4-.4.6-.4a50.5,50.5,0,0,1,5.5,0c.2,0,.4.3.7.5Z" transform="translate(-6 -14.5)"/></svg>